<?xml version="1.0" encoding="UTF-8"?><svg id="Layer_2" xmlns="http://www.w3.org/2000/svg" viewBox="0 0 501 424"><defs><style>.cls-1{fill:#070808;}.cls-1,.cls-2,.cls-3,.cls-4{stroke:#070808;stroke-miterlimit:10;}.cls-2{fill:#fff;}.cls-3{fill:none;}</style></defs><g id="introSVG"><g id="bakerthings"><ellipse class="cls-4" cx="250.5" cy="323" rx="250" ry="100.5"/><g id="wrapper"><polygon class="cls-2" points="92.75 322.5 71.89 322.5 66.16 273.91 58.84 211.9 79.71 211.9 88.23 284.16 92.75 322.5"/><polygon class="cls-2" points="71.89 322.5 51.02 322.5 43.05 254.96 37.98 211.9 58.84 211.9 66.16 273.91 71.89 322.5"/><polygon class="cls-2" points="51.02 322.5 30.15 322.5 17.11 211.9 37.98 211.9 43.05 254.96 51.02 322.5"/><polygon class="cls-2" points="164.23 211.9 155.69 284.34 151.18 322.5 92.75 322.5 88.23 284.16 79.71 211.9 164.23 211.9"/><polygon class="cls-2" points="185.09 211.9 177.74 274.25 172.05 322.5 151.18 322.5 155.69 284.34 164.23 211.9 185.09 211.9"/><polygon class="cls-2" points="205.96 211.9 200.81 255.6 192.92 322.5 172.05 322.5 177.74 274.25 185.09 211.9 205.96 211.9"/><polygon class="cls-2" points="226.83 211.9 213.79 322.5 192.92 322.5 200.81 255.6 205.96 211.9 226.83 211.9"/></g><g id="cake"><path class="cls-2" d="m229.96,181.9c0,10.41-1.48,20.48-4.23,30H18.73c-2.75-9.52-4.23-19.59-4.23-30,0-12.04,1.98-23.62,5.62-34.44,14.36-42.61,54.65-73.29,102.11-73.29s86.31,29.61,101.32,71.04c4.15,11.45,6.41,23.8,6.41,36.69Z"/><path class="cls-1" d="m223.55,145.21c-.84.69-1.75,1.32-2.72,1.88-9.73,5.62-22.18,2.29-27.79-7.44-.21-.37-.41-.74-.6-1.12-14.17,6.4-31.11,10.9-49.63,12.84.02.35.03.71.03,1.06,0,11.24-9.11,20.35-20.35,20.35s-20.35-9.11-20.35-20.35c0-.34.01-.67.03-1.01-20.25-2.07-38.63-7.19-53.59-14.52-2.97,7.56-10.33,12.92-18.95,12.92-3.43,0-6.67-.85-9.51-2.35,14.36-42.61,54.65-73.29,102.11-73.29s86.31,29.61,101.32,71.04Z"/></g><g id="cherry"><circle class="cls-2" cx="123.53" cy="54.87" r="19.3"/><path class="cls-3" d="m121.97,49.65c-.43-1.08-4-10.47,1.04-18.26,5.16-7.96,17.28-11.08,28.17-5.74"/></g><g id="chefhat"><rect class="cls-2" x="272.5" y="51.5" width="45" height="242"/><rect class="cls-2" x="317.5" y="51.5" width="50" height="242"/><rect class="cls-2" x="226.5" y="51.5" width="46" height="242"/><rect class="cls-2" x="177.5" y="51.5" width="49" height="242"/><path class="cls-2" d="m401.5,34.5c0,18.78-15.22,34-34,34-9.89,0-18.79-4.22-25-10.96-6.21,6.74-15.11,10.96-25,10.96-8.63,0-16.51-3.21-22.5-8.51-5.99,5.3-13.87,8.51-22.5,8.51s-16.95-3.39-23-8.96c-6.05,5.57-14.13,8.96-23,8.96-9.63,0-18.32-4-24.5-10.43-6.18,6.43-14.87,10.43-24.5,10.43-18.78,0-34-15.22-34-34S158.72.5,177.5.5c9.63,0,18.32,4,24.5,10.43,6.18-6.43,14.87-10.43,24.5-10.43,8.87,0,16.95,3.39,23,8.96,6.05-5.57,14.13-8.96,23-8.96s16.51,3.21,22.5,8.51c5.99-5.3,13.87-8.51,22.5-8.51,9.89,0,18.79,4.22,25,10.96,6.21-6.74,15.11-10.96,25-10.96,18.78,0,34,15.22,34,34Z"/><rect class="cls-2" x="177.5" y="293.5" width="190" height="40"/></g><g id="cake-2"><path class="cls-2" d="m446.33,210.64l-169.9,59.04-6.93,2.41v51.81l183.49-69.56v-43.74c-2.17.07-4.39.09-6.66.04Zm-146.61,94.55c-5.16,0-9.35-4.19-9.35-9.36s4.19-9.35,9.35-9.35,9.36,4.19,9.36,9.35-4.19,9.36-9.36,9.36Zm31.66-23.75c-5.16,0-9.35-4.19-9.35-9.35s4.19-9.36,9.35-9.36,9.36,4.19,9.36,9.36-4.19,9.35-9.36,9.35Zm57.57-18.71c-5.17,0-9.36-4.18-9.36-9.35s4.19-9.36,9.36-9.36,9.35,4.19,9.35,9.36-4.18,9.35-9.35,9.35Zm49.65-14.39c-5.17,0-9.36-4.19-9.36-9.35s4.19-9.36,9.36-9.36,9.35,4.19,9.35,9.36-4.18,9.35-9.35,9.35Z"/><path class="cls-2" d="m290.37,295.83c0-5.16,4.19-9.35,9.35-9.35s9.36,4.19,9.36,9.35-4.19,9.36-9.36,9.36-9.35-4.19-9.35-9.36Z"/><path class="cls-2" d="m322.03,272.09c0-5.17,4.19-9.36,9.35-9.36s9.36,4.19,9.36,9.36-4.19,9.35-9.36,9.35-9.35-4.19-9.35-9.35Z"/><path class="cls-2" d="m379.59,253.38c0-5.17,4.19-9.36,9.36-9.36s9.35,4.19,9.35,9.36-4.18,9.35-9.35,9.35-9.36-4.18-9.36-9.35Z"/><path class="cls-2" d="m429.24,238.99c0-5.17,4.19-9.36,9.36-9.36s9.35,4.19,9.35,9.36-4.18,9.35-9.35,9.35-9.36-4.19-9.36-9.35Z"/><polygon class="cls-2" points="452.99 254.34 452.99 323.05 269.5 386.5 269.5 323.9 452.99 254.34"/><path class="cls-2" d="m490.05,196.88v113.35l-37.06,12.82v-112.45c18.75-.61,33.33-5.47,37.06-13.72Z"/><path class="cls-2" d="m490.05,195.45v1.43c-3.73,8.25-18.31,13.11-37.06,13.72-2.17.07-4.39.09-6.66.04l6.46-2.24.2-.07,37.06-12.88Z"/><polygon class="cls-2" points="490.05 195.45 452.99 208.33 452.79 208.4 446.33 210.64 276.43 269.68 269.5 272.09 272.38 268.58 349.21 175.12 351.36 172.51 365.92 154.8 490.05 195.45"/><path class="cls-4" d="m452.79,208.4l-6.46,2.24-169.9,59.04c-1.37-.36-2.72-.72-4.05-1.1l76.83-93.46c1.7.06,3.39.13,5.06.22,45.51,2.37,83.18,15.43,98.52,33.06Z"/><path class="cls-1" d="m447.95,238.99c0,5.16-4.18,9.35-9.35,9.35s-9.36-4.19-9.36-9.35,4.19-9.36,9.36-9.36,9.35,4.19,9.35,9.36Z"/><path class="cls-1" d="m309.08,295.83c0,5.17-4.19,9.36-9.36,9.36s-9.35-4.19-9.35-9.36,4.19-9.35,9.35-9.35,9.36,4.19,9.36,9.35Z"/><path class="cls-1" d="m340.74,272.09c0,5.16-4.19,9.35-9.36,9.35s-9.35-4.19-9.35-9.35,4.19-9.36,9.35-9.36,9.36,4.19,9.36,9.36Z"/><path class="cls-1" d="m398.3,253.38c0,5.17-4.18,9.35-9.35,9.35s-9.36-4.18-9.36-9.35,4.19-9.36,9.36-9.36,9.35,4.19,9.35,9.36Z"/><line class="cls-3" x1="452.99" y1="323.18" x2="452.99" y2="323.05"/><polyline class="cls-3" points="452.99 210.6 452.99 208.33 452.99 208.05"/><path class="cls-2" d="m490.42,195.97c-.11.31-.23.61-.37.91-3.73,8.25-18.31,13.11-37.06,13.72-2.17.07-4.39.09-6.66.04-19.85-.37-43.19-5.18-63.12-15.27-10.89-5.51-21.18-12.81-28.94-20.03-1.02-.94-1.99-1.89-2.91-2.83-8.04-8.15-12.47-15.88-10.43-20.43,4.17-9.33,31.66,3.43,46.35-11.28,15.77-15.77-2.73-43.58,11.93-58.07,16.71-16.53,61.49-.89,61.31,6.44-.14,6.08-31.12,2.62-36.79,16.38-10.09,24.46,75.08,66.18,66.69,90.42Z"/></g></g></g></svg>