<?xml version="1.0" encoding="UTF-8"?><svg id="Layer_2" xmlns="http://www.w3.org/2000/svg" viewBox="0 0 242.2 2160"><defs><style>.cls-1{fill:none;stroke:#fff;stroke-miterlimit:10;}</style></defs><g id="Layer_4">
<path class="cls-1 animatedballpath" d="m105.38,0v154l21.97-12.36c38.47-21.64,87.13-3,101.3,38.8l12.73,37.56h0c-42.72-16.85-91.4-5.46-122.22,28.58h0c-22.93,25.32-40.22,55.22-50.74,87.72l-29.04,89.7h0c22.12-18.19,55.56-9.32,65.76,17.43l69.24,181.57h0c-37.17-12.01-77.48,5.45-94.14,40.78L1.38,831h0c22.09-17.77,55.14-7.71,63.59,19.35l80.41,257.65h0c-26.01-21.67-64.64-18.3-86.51,7.55l-36.49,43.15,9.52-6.99c23.2-17.03,55.41-14.35,75.48,6.29h0s0,0,0,0c-16.39-7.23-34.93,4.23-35.79,22.12l-9.21,190.88h0c21.24-20.21,55.65-16.01,71.41,8.72l41.59,65.28h0c-17.78-16.51-46.78-6.3-50.3,17.71l-52.7,360.29h0c8.87-13.6,30-7.32,30,8.92v328.08"/></g></svg>