<?xml version="1.0" encoding="UTF-8"?><svg id="Layer_2" xmlns="http://www.w3.org/2000/svg" viewBox="0 0 419 249"><defs><style>.cls-1{fill:#fff;}.cls-2{fill:#070808;}</style></defs><g id="Layer_1-2"><g id="cloud_right"><path class="cls-2" d="m229.5,248.5c-19.84,0-39.09-7.04-54.2-19.83l-.33-.28-.32.28c-10.14,8.92-23.15,13.83-36.65,13.83-24.43,0-46.32-16.35-53.23-39.75l-.11-.38-.39.02c-1.5.07-2.89.11-4.27.11C36.16,202.5.5,166.84.5,123,.5,86.94,24.82,55.33,59.64,46.14l.17-.04.1-.14C78.61,20.88,107.26,6.5,138.5,6.5c15.34,0,30.04,3.45,43.67,10.25l.32.16.25-.25C193.44,6.24,207.56.5,222.5.5c27.62,0,51.21,19.69,56.09,46.83l.21,1.15.69-.95c11.83-16.3,30.9-26.03,51.02-26.03,34.74,0,63,28.26,63,63,0,5.12-.61,10.19-1.82,15.08l-.09.37.33.19c16.39,9.2,26.57,26.59,26.57,45.36,0,28.67-23.33,52-52,52-10.69,0-20.95-3.22-29.67-9.3l-.4-.28-.29.39c-8.43,11.34-21.26,18.89-35.19,20.72l-.23.03-.12.2c-15.5,24.57-42.07,39.24-71.09,39.24Z"/><path class="cls-1" d="m222.5,1c27.38,0,50.76,19.52,55.6,46.42l.42,2.31,1.38-1.9c11.74-16.17,30.66-25.83,50.61-25.83,34.46,0,62.5,28.04,62.5,62.5,0,5.08-.61,10.11-1.8,14.96l-.18.74.66.37c16.23,9.12,26.32,26.33,26.32,44.93,0,28.4-23.1,51.5-51.5,51.5-10.58,0-20.75-3.18-29.39-9.21l-.8-.55-.58.78c-8.35,11.23-21.06,18.71-34.86,20.53l-.47.06-.25.4c-15.4,24.42-41.82,39-70.66,39-19.72,0-38.85-7-53.87-19.71l-.66-.56-.65.57c-10.05,8.84-22.95,13.7-36.32,13.7-12.11,0-23.59-3.86-33.21-11.16-9.31-7.06-16.25-17.09-19.54-28.24l-.22-.75-.79.04c-1.49.07-2.87.11-4.24.11C36.44,202,1,166.56,1,123c0-35.84,24.17-67.24,58.77-76.37l.34-.09.21-.28c8.89-11.92,20.56-21.8,33.75-28.56,13.83-7.1,28.78-10.69,44.43-10.69s29.88,3.43,43.44,10.19l.64.32.51-.5c10.6-10.33,24.6-16.02,39.41-16.02m0-1c-15.6,0-29.76,6.22-40.11,16.3-13.21-6.59-28.12-10.3-43.89-10.3-32.34,0-61.04,15.59-78.99,39.66C25.25,54.7,0,85.9,0,123c0,44.18,35.82,80,80,80,1.44,0,2.87-.04,4.29-.11,6.85,23.19,28.3,40.11,53.71,40.11,14.17,0,27.11-5.27,36.98-13.95,14.71,12.45,33.74,19.95,54.52,19.95,30.12,0,56.55-15.75,71.51-39.47,14.52-1.91,27.19-9.71,35.53-20.92,8.49,5.92,18.82,9.39,29.96,9.39,28.99,0,52.5-23.51,52.5-52.5,0-19.67-10.82-36.81-26.83-45.8,1.2-4.87,1.83-9.96,1.83-15.2,0-35.07-28.43-63.5-63.5-63.5-21.15,0-39.88,10.34-51.42,26.24C274.25,20.38,250.76,0,222.5,0h0Z"/></g></g></svg>