<?xml version="1.0" encoding="UTF-8"?><svg id="Layer_2" xmlns="http://www.w3.org/2000/svg" viewBox="0 0 577 313"><defs><style>.cls-1{fill:#fff;}.cls-2{fill:#070808;}</style></defs><g id="Layer_1-2"><g id="cloud_lower"><path class="cls-2" d="m166.5,312.5c-52.38,0-95-42.62-95-95,0-5.18.42-10.37,1.25-15.43l.1-.59h-.6c-.41.02-.82.02-1.23.02h-.02C32.13,201.5.5,169.87.5,131S32.13,60.5,71,60.5c4.8,0,9.59.48,14.26,1.44l.54.11.06-.55C89.41,26.72,118.49.5,153.5.5c25.04,0,47.99,13.71,59.89,35.77l.36.66.47-.58C232.72,13.57,260.16.5,289.5.5c22.3,0,43.27,7.36,60.62,21.27,16.85,13.51,28.85,32.47,33.78,53.37l.19.81.63-.55c16.12-14.13,36.82-21.91,58.28-21.91,48.8,0,88.5,39.7,88.5,88.5,0,4.63-.36,9.25-1.06,13.71l-.06.39.36.15c27.8,11.63,45.76,38.61,45.76,68.75,0,41.08-33.42,74.5-74.5,74.5-13.65,0-27-3.73-38.62-10.78l-.28-.17-.27.19c-9.73,7.04-21.26,10.75-33.33,10.75-14.05,0-27.55-5.16-38.01-14.52l-.25-.23-.3.15c-11.53,5.71-23.96,8.6-36.94,8.6-20.53,0-40.26-7.51-55.55-21.15l-.22-.19-.28.09c-6.41,2.16-13.12,3.25-19.96,3.25-10.6,0-21.07-2.7-30.28-7.82l-.42-.23-.25.4c-17.49,27.96-47.61,44.65-80.56,44.65Z"/><path class="cls-1" d="m289.5,1c22.19,0,43.04,7.32,60.31,21.16,16.77,13.44,28.7,32.3,33.6,53.1l.38,1.62,1.25-1.1c16.03-14.05,36.61-21.78,57.95-21.78,48.52,0,88,39.48,88,88,0,4.61-.36,9.2-1.06,13.63l-.12.78.72.3c27.61,11.55,45.46,38.36,45.46,68.29,0,40.8-33.2,74-74,74-13.55,0-26.82-3.7-38.36-10.71l-.57-.34-.54.39c-9.65,6.97-21.07,10.66-33.03,10.66-13.93,0-27.31-5.11-37.67-14.39l-.5-.45-.61.3c-11.46,5.67-23.82,8.55-36.72,8.55-20.41,0-40.02-7.47-55.21-21.03l-.43-.39-.55.19c-6.35,2.14-13.02,3.23-19.8,3.23-10.51,0-20.9-2.68-30.03-7.75l-.83-.46-.5.8c-8.34,13.33-19.98,24.47-33.66,32.21-14.1,7.98-30.17,12.2-46.48,12.2-52.11,0-94.5-42.39-94.5-94.5,0-5.15.42-10.31,1.25-15.35l.2-1.19-1.21.03c-.41,0-.82,0-1.24,0-38.6,0-70-31.4-70-70S32.4,61,71,61c4.76,0,9.53.48,14.16,1.43l1.08.22.11-1.1c1.69-16.53,9.42-31.81,21.78-43.03C120.57,7.22,136.68,1,153.5,1c24.86,0,47.64,13.6,59.45,35.5l.71,1.32.94-1.16C233.01,14,260.31,1,289.5,1m0-1c-30.54,0-57.81,14.04-75.67,36.03C202.26,14.58,179.58,0,153.5,0c-35.45,0-64.61,26.93-68.14,61.45-4.64-.95-9.44-1.45-14.36-1.45C31.79,60,0,91.79,0,131s31.79,71,71,71c.42,0,.84,0,1.26-.01-.83,5.05-1.26,10.23-1.26,15.51,0,52.74,42.76,95.5,95.5,95.5,34.15,0,64.11-17.92,80.98-44.88,9.04,5.02,19.44,7.88,30.52,7.88,7.04,0,13.8-1.15,20.12-3.28,14.84,13.24,34.42,21.28,55.88,21.28,13.34,0,25.96-3.11,37.16-8.65,10.17,9.11,23.61,14.65,38.34,14.65,12.55,0,24.17-4.02,33.62-10.85,11.34,6.88,24.65,10.85,38.88,10.85,41.42,0,75-33.58,75-75,0-31.16-19.01-57.89-46.07-69.21.71-4.49,1.07-9.1,1.07-13.79,0-49.15-39.85-89-89-89-22.45,0-42.95,8.31-58.61,22.03C374.25,32.01,335.62,0,289.5,0h0Z"/></g></g></svg>