<?xml version="1.0" encoding="UTF-8"?><svg id="Layer_2" xmlns="http://www.w3.org/2000/svg" viewBox="0 0 595 363"><defs><style>.cls-1{fill:#fff;}.cls-2{fill:#070808;}</style></defs><g id="Layer_1-2"><g id="cloud_top"><path class="cls-2" d="m210,362.5c-56.8,0-104.81-42.45-111.66-98.75l-.07-.59-.57.17c-7,2.1-14.3,3.17-21.7,3.17C34.37,266.5.5,232.63.5,191c0-30.81,18.43-58.25,46.95-69.91l.33-.14-.02-.36c-.17-2.54-.26-5.1-.26-7.6C47.5,50.97,97.97.5,160,.5c30.66,0,59.3,12.11,80.65,34.09l.45.47.33-.56c11.42-19.12,32.32-31,54.56-31,20.59,0,39.99,10.05,51.89,26.88l.34.48.42-.42c16.13-16.08,37.56-24.94,60.35-24.94,47.15,0,85.5,38.36,85.5,85.5,0,2.71-.12,5.39-.37,7.97l-.05.53h.54c18.22.43,35.29,7.84,48.06,20.88,12.79,13.06,19.83,30.33,19.83,48.61,0,4.6-.45,9.2-1.35,13.69l-.07.36.32.18c20.42,11.15,33.1,32.52,33.1,55.77,0,35.01-28.49,63.5-63.5,63.5-5.73,0-11.41-.76-16.9-2.27l-.33-.09-.2.27c-12.12,15.95-30.55,25.09-50.57,25.09-7.95,0-15.69-1.45-23-4.3l-.28-.11-.23.19c-16.85,14.32-38.34,22.21-60.5,22.21-18.57,0-36.51-5.43-51.87-15.7l-.21-.14-.24.08c-14.26,5.11-29.21,8.01-44.44,8.62h-.17s-.13.12-.13.12c-20.13,16.78-45.68,26.01-71.94,26.01Z"/><path class="cls-1" d="m160,1c30.53,0,59.04,12.05,80.29,33.94l.91.93.67-1.12c5.49-9.2,13.29-16.91,22.56-22.28,9.55-5.54,20.46-8.47,31.57-8.47,20.43,0,39.68,9.97,51.48,26.67l.68.97.84-.84c16.03-15.99,37.34-24.8,59.99-24.8,46.87,0,85,38.13,85,85,0,2.7-.12,5.36-.37,7.93l-.1,1.07,1.07.02c18.09.41,35.04,7.77,47.71,20.72,12.69,12.97,19.68,30.11,19.68,48.26,0,4.56-.45,9.14-1.34,13.59l-.14.72.65.35c20.26,11.07,32.84,32.27,32.84,55.33,0,34.74-28.26,63-63,63-5.68,0-11.32-.76-16.76-2.25l-.65-.18-.41.54c-12.02,15.82-30.31,24.9-50.17,24.9-7.89,0-15.57-1.43-22.82-4.26l-.56-.22-.45.39c-16.76,14.25-38.13,22.09-60.17,22.09-18.47,0-36.31-5.4-51.59-15.61l-.42-.28-.47.17c-14.21,5.09-29.11,7.98-44.29,8.59h-.34s-.26.23-.26.23c-20.04,16.7-45.47,25.9-71.62,25.9-56.55,0-104.34-42.26-111.17-98.31l-.14-1.18-1.14.34c-6.95,2.09-14.2,3.15-21.55,3.15-41.36,0-75-33.64-75-75,0-15.19,4.51-29.81,13.06-42.3,8.34-12.19,19.96-21.58,33.58-27.15l.67-.27-.05-.72c-.17-2.54-.26-5.08-.26-7.56,0-29.92,11.65-58.04,32.8-79.2C101.96,12.65,130.08,1,160,1m0-1C97.59,0,47,50.59,47,113c0,2.56.09,5.11.26,7.63C19.53,131.96,0,159.2,0,191c0,41.97,34.03,76,76,76,7.59,0,14.92-1.11,21.84-3.19,6.81,55.9,54.43,99.19,112.16,99.19,27.48,0,52.68-9.81,72.26-26.13,15.59-.63,30.57-3.63,44.59-8.65,14.92,9.97,32.86,15.78,52.15,15.78,23.19,0,44.43-8.4,60.82-22.33,7.18,2.8,15,4.33,23.18,4.33,20.8,0,39.29-9.92,50.97-25.29,5.42,1.49,11.13,2.29,17.03,2.29,35.35,0,64-28.65,64-64,0-24.25-13.48-45.35-33.36-56.21.89-4.46,1.36-9.07,1.36-13.79,0-38.12-30.46-69.12-68.37-69.98.25-2.64.37-5.31.37-8.02,0-47.5-38.5-86-86-86-23.69,0-45.15,9.58-60.7,25.09-11.59-16.39-30.69-27.09-52.3-27.09-23.38,0-43.82,12.53-54.99,31.24C220.5,13.12,191.78,0,160,0h0Z"/></g></g></svg>