<?xml version="1.0" encoding="UTF-8"?><svg id="Layer_2" xmlns="http://www.w3.org/2000/svg" viewBox="0 0 385 224"><defs><style>.cls-1{fill:#fff;}.cls-2{fill:#070808;}</style></defs><g id="Layer_1-2"><g id="cloud_left"><path class="cls-2" d="m267,223.5c-25.1,0-47.89-14.82-58.07-37.76l-.54-1.21-.4,1.26c-7.12,22.56-27.81,37.71-51.49,37.71-25.29,0-47.49-17.91-52.78-42.59l-.19-.88-.65.62c-11.31,10.87-26.18,16.85-41.88,16.85-33.36,0-60.5-27.14-60.5-60.5,0-24.8,15.53-47.48,38.65-56.43l.24-.09.06-.25c7.2-28.69,32.92-48.72,62.55-48.72,20.89,0,40.58,10.19,52.66,27.25l.29.41.41-.3c11.13-8.09,24.32-12.36,38.14-12.36,3.53,0,7.06.28,10.5.84l.48.08.09-.48C209.8,20.03,233.53.5,261,.5c31.71,0,57.5,25.79,57.5,57.5,0,.47,0,.93-.02,1.4v.57s.56-.07.56-.07c2.3-.27,4.65-.41,6.96-.41,32.26,0,58.5,26.24,58.5,58.5s-24.51,57.01-55.79,58.43l-.36.02-.1.35c-7.51,27.5-32.7,46.7-61.25,46.7Z"/><path class="cls-1" d="m261,1c31.43,0,57,25.57,57,57,0,.46,0,.92-.02,1.39l-.02,1.15,1.14-.13c2.28-.27,4.6-.4,6.9-.4,31.98,0,58,26.02,58,58s-24.3,56.52-55.32,57.93l-.73.03-.19.7c-7.45,27.28-32.44,46.33-60.77,46.33-24.9,0-47.52-14.71-57.62-37.47l-1.07-2.42-.8,2.52c-3.35,10.6-10.13,20.12-19.1,26.8-9.28,6.91-20.32,10.56-31.92,10.56-12.31,0-24.32-4.28-33.83-12.06-9.38-7.67-15.94-18.37-18.46-30.14l-.38-1.75-1.29,1.24c-11.22,10.78-25.97,16.71-41.54,16.71-33.08,0-60-26.92-60-60,0-12.34,3.72-24.2,10.76-34.29,6.88-9.86,16.41-17.36,27.58-21.68l.48-.19.13-.5c7.14-28.46,32.66-48.34,62.06-48.34,20.73,0,40.26,10.11,52.25,27.04l.59.83.82-.59c11.05-8.03,24.13-12.27,37.84-12.27,3.5,0,7.01.28,10.42.84l.96.16.19-.95c5.19-26.68,28.71-46.04,55.94-46.04m0-1c-28.22,0-51.73,20.15-56.92,46.85-3.44-.56-6.98-.85-10.58-.85-14.35,0-27.64,4.62-38.43,12.46-11.77-16.62-31.15-27.46-53.07-27.46-30.41,0-55.95,20.89-63.03,49.1C16.17,88.93,0,111.08,0,137c0,33.69,27.31,61,61,61,16.39,0,31.27-6.46,42.23-16.99,5.27,24.57,27.12,42.99,53.27,42.99,24.37,0,45.01-16,51.97-38.06,9.95,22.42,32.41,38.06,58.53,38.06,29.49,0,54.32-19.94,61.73-47.07,31.31-1.42,56.27-27.26,56.27-58.93s-26.42-59-59-59c-2.38,0-4.72.14-7.02.41,0-.47.02-.94.02-1.41,0-32.03-25.97-58-58-58h0Z"/></g></g></svg>