<?xml version="1.0" encoding="UTF-8"?><svg id="Layer_1" xmlns="http://www.w3.org/2000/svg" viewBox="0 0 430 2160"><defs><style>.cls-1{fill:#fff;}.cls-2{fill:none;}.cls-2,.cls-3{stroke:#fff;stroke-miterlimit:10;}.cls-4,.cls-3{fill:#070808;}</style></defs><g id="Background"><rect class="cls-4" width="430" height="2160"/></g><g id="Guitar"><path class="cls-4" d="m384.63,529.16c-16.15,0-36.19-6.34-55-17.4-20.71-12.18-38.27-29.18-49.43-47.86-13.2-22.09-20.07-50.25-18.84-77.26,1.19-26.29,10.16-46.94,23.98-55.25,4.83-2.9,10.2-4.31,16.41-4.31,6.79,0,13.82,1.67,20.62,3.29,6.68,1.59,13.58,3.23,20.14,3.23,6.74,0,12.45-1.76,17.43-5.37,14.01-10.15,13.61-28.33,13.21-45.9-.36-15.91-.7-30.94,9.39-39.23,5.5-4.52,14.12-6.91,24.92-6.91,24.8,0,58.47,12.36,85.78,31.5,32.32,22.64,52.19,51.42,55.95,81.02,3.63,28.58-5.69,66.37-30.12,80.11-6.51,3.66-13.63,5.44-21.77,5.44h0c-10.47,0-20.98-2.92-31.14-5.74-9.3-2.59-18.09-5.03-26.12-5.03-6.77,0-12.3,1.78-16.91,5.45-13.12,10.43-10.95,29.9-8.86,48.73,2.03,18.28,3.96,35.55-7.07,44.85-5.16,4.35-12.96,6.65-22.56,6.65Z"/><path class="cls-1" d="m407.46,236.68c24.7,0,58.26,12.33,85.49,31.41,32.2,22.56,52,51.21,55.74,80.67,3.61,28.41-5.63,65.97-29.87,79.61-6.43,3.62-13.47,5.38-21.53,5.38-10.4,0-20.88-2.91-31.01-5.73-9.34-2.59-18.16-5.05-26.26-5.05-6.89,0-12.52,1.82-17.22,5.55-13.34,10.61-11.15,30.21-9.05,49.18,2.02,18.15,3.92,35.29-6.9,44.42-5.06,4.27-12.75,6.53-22.24,6.53-16.06,0-36.01-6.32-54.75-17.33-20.64-12.14-38.13-29.07-49.26-47.69-13.15-22.01-19.99-50.07-18.77-76.98,1.18-26.12,10.06-46.62,23.74-54.84,4.75-2.85,10.03-4.24,16.16-4.24,6.73,0,13.73,1.66,20.5,3.27,6.71,1.59,13.64,3.24,20.25,3.24s12.65-1.79,17.73-5.46c14.23-10.31,13.82-28.61,13.42-46.31-.35-15.79-.69-30.69,9.21-38.84,5.41-4.45,13.92-6.8,24.61-6.8m0-1c-10.61,0-19.43,2.25-25.24,7.03-21.61,17.76,3.74,66.04-22.58,85.11-5.42,3.92-11.18,5.27-17.14,5.27-13.1,0-27.18-6.52-40.75-6.52-5.68,0-11.27,1.14-16.67,4.38-29.5,17.72-33.32,86.3-5.31,133.19,24.35,40.76,72.98,65.51,104.86,65.51,9.46,0,17.44-2.18,22.88-6.77,22.97-19.38-9.32-73.5,15.92-93.58,4.91-3.9,10.51-5.34,16.6-5.34,16.71,0,37.12,10.77,57.26,10.77,7.45,0,14.85-1.47,22.02-5.51,25.72-14.47,33.79-53.72,30.38-80.61-8.43-66.37-93.92-112.95-142.23-112.95h0Z"/><path class="cls-4" d="m364.72,517.66c-16.15,0-36.19-6.34-55-17.4-20.71-12.18-38.27-29.18-49.43-47.86-13.2-22.09-20.07-50.25-18.84-77.26,1.19-26.29,10.15-46.94,23.98-55.25,4.83-2.9,10.2-4.31,16.41-4.31,6.79,0,13.82,1.67,20.62,3.29,6.68,1.59,13.58,3.23,20.13,3.23,6.74,0,12.45-1.76,17.43-5.37,14.01-10.15,13.61-28.32,13.21-45.9-.36-15.91-.7-30.94,9.39-39.23,5.5-4.52,14.12-6.91,24.92-6.91,24.8,0,58.47,12.36,85.78,31.5,32.32,22.64,52.19,51.42,55.95,81.02,3.63,28.58-5.69,66.37-30.12,80.11-6.51,3.66-13.63,5.44-21.77,5.44h0c-10.47,0-20.98-2.92-31.14-5.74-9.3-2.59-18.09-5.03-26.12-5.03-6.77,0-12.3,1.78-16.91,5.45-13.12,10.43-10.95,29.9-8.86,48.73,2.03,18.28,3.96,35.55-7.07,44.86-5.16,4.35-12.96,6.65-22.56,6.65Z"/><path class="cls-1" d="m387.54,225.18c24.7,0,58.26,12.33,85.49,31.41,32.2,22.56,52,51.21,55.74,80.67,3.61,28.41-5.63,65.97-29.87,79.61-6.43,3.62-13.47,5.38-21.53,5.38-10.4,0-20.88-2.91-31.01-5.73-9.34-2.59-18.16-5.05-26.26-5.05-6.89,0-12.52,1.82-17.22,5.55-13.34,10.61-11.15,30.21-9.05,49.18,2.02,18.15,3.92,35.29-6.9,44.42-5.06,4.27-12.75,6.53-22.24,6.53-16.06,0-36.01-6.32-54.75-17.33-20.64-12.14-38.13-29.07-49.26-47.69-13.15-22.01-19.99-50.07-18.77-76.98,1.18-26.12,10.06-46.62,23.74-54.84,4.75-2.85,10.03-4.24,16.16-4.24,6.73,0,13.73,1.66,20.5,3.27,6.71,1.59,13.64,3.24,20.25,3.24s12.65-1.79,17.73-5.46c14.23-10.31,13.82-28.61,13.42-46.31-.35-15.79-.69-30.69,9.21-38.84,5.41-4.45,13.92-6.8,24.61-6.8m0-1c-10.61,0-19.43,2.25-25.24,7.03-21.61,17.76,3.74,66.04-22.58,85.11-5.42,3.92-11.18,5.27-17.14,5.27-13.1,0-27.18-6.52-40.75-6.52-5.68,0-11.27,1.14-16.67,4.38-29.5,17.72-33.32,86.3-5.31,133.19,24.35,40.76,72.98,65.51,104.86,65.51,9.46,0,17.44-2.18,22.88-6.77,22.97-19.38-9.32-73.5,15.92-93.58,4.91-3.9,10.51-5.34,16.6-5.34,16.71,0,37.12,10.77,57.26,10.77,7.45,0,14.85-1.47,22.02-5.51,25.72-14.47,33.79-53.72,30.38-80.61-8.43-66.37-93.92-112.95-142.23-112.95h0Z"/><path class="cls-4" d="m417.78,371.35c-6.38,0-12.64-1.67-18.12-4.83-18.38-10.61-24.03-35.37-12.59-55.19,7.67-13.28,21.43-21.53,35.93-21.53,6.4,0,12.68,1.67,18.17,4.84,6.11,3.53,11.03,8.76,14.25,15.13l.07.14h0c6.21,12.37,5.56,27.28-1.74,39.92-7.31,12.66-19.92,20.68-33.75,21.46h-.13s-.02,0-.02,0c-.69.04-1.37.06-2.06.06Z"/><path class="cls-1" d="m422.99,289.29v1h0c6.31,0,12.51,1.65,17.92,4.77,6,3.46,10.84,8.59,14.02,14.85l.1.32.1.06c6.05,12.18,5.38,26.84-1.8,39.28-7.21,12.49-19.66,20.42-33.3,21.21h-.23s-.03,0-.03,0c-.66.04-1.32.05-1.97.05-6.29,0-12.47-1.65-17.87-4.77-8.78-5.07-14.91-13.52-17.26-23.8-2.36-10.31-.63-21.21,4.85-30.71,7.58-13.12,21.18-21.28,35.49-21.28v-1m0,0c-14.16,0-28.34,7.9-36.36,21.78-11.6,20.09-5.88,45.1,12.77,55.87,5.75,3.32,12.06,4.9,18.37,4.9.71,0,1.42-.02,2.13-.06,0,0,.01,0,.02,0,.01,0,.02,0,.03,0,13.43-.74,26.61-8.54,34.22-21.72s7.77-28.49,1.7-40.5c0,0-.02-.02-.02-.04-3.17-6.27-8.05-11.64-14.45-15.34-5.76-3.33-12.09-4.91-18.42-4.91h0Z"/><line class="cls-2" x1="349.87" y1="419.75" x2="546.98" y2="248.34"/><line class="cls-2" x1="338.14" y1="406.06" x2="539.35" y2="233.55"/><line class="cls-2" x1="324.55" y1="393.59" x2="526.26" y2="220.22"/><line class="cls-2" x1="319.99" y1="387.49" x2="519.1" y2="212.62"/><line class="cls-2" x1="343.94" y1="414.02" x2="544.42" y2="238.78"/><line class="cls-2" x1="331.85" y1="398.96" x2="536.79" y2="223.99"/><path class="cls-1" d="m320.1,378.59l42.46,44.65-10.55,9.54-39.91-47.09,8.01-7.1m.06-1.39l-9.46,8.39,41.21,48.62,12.08-10.92-43.83-46.09h0Z"/><line class="cls-2" x1="350.1" y1="423.35" x2="350.13" y2="415.29"/><line class="cls-2" x1="353.46" y1="419.52" x2="346.77" y2="419.12"/><line class="cls-2" x1="347.04" y1="414.65" x2="340.84" y2="413.39"/><line class="cls-2" x1="343.3" y1="417.12" x2="345.07" y2="410.06"/><line class="cls-2" x1="340.74" y1="407.56" x2="335.55" y2="404.56"/><line class="cls-2" x1="337.51" y1="409.15" x2="339.28" y2="402.09"/><line class="cls-2" x1="334.45" y1="400.46" x2="329.25" y2="397.46"/><line class="cls-2" x1="332.08" y1="402.56" x2="332.12" y2="394.49"/><line class="cls-2" x1="327.65" y1="394.23" x2="321.09" y2="391.59"/><line class="cls-2" x1="324.42" y1="395.82" x2="324.82" y2="389.13"/><line class="cls-2" x1="319.86" y1="389.73" x2="320.63" y2="384.4"/><line class="cls-2" x1="323.09" y1="388.13" x2="317.39" y2="385.99"/><path class="cls-1" d="m424.77,294.07v1c6.63,0,13.19,1.76,18.96,5.1,4.4,2.54,8.17,5.85,11.21,9.84l.07.23.1.06c6.05,12.18,5.38,26.84-1.8,39.28-7.21,12.49-19.66,20.42-33.3,21.21h-.05c-5.01-.63-9.8-2.25-14.22-4.8-18.15-10.48-24.39-33.76-13.91-51.91,6.77-11.72,19.39-19.01,32.94-19.01v-1m0,0c-13.48,0-26.59,7-33.81,19.51-10.77,18.65-4.38,42.5,14.27,53.27,4.66,2.69,9.66,4.32,14.68,4.94,0,0,.01,0,.02,0,.01,0,.02,0,.03,0,13.43-.74,26.61-8.54,34.22-21.72s7.77-28.49,1.7-40.5c0,0-.02-.02-.02-.04-3.05-4.04-6.96-7.55-11.62-10.24-6.14-3.55-12.85-5.23-19.46-5.23h0Z"/></g><g id="Wheel"><path class="cls-4" d="m-2.5,544c-44.39,0-80.5-36.11-80.5-80.5S-46.89,383-2.5,383c4.18,0,8.41.33,12.58.97l.39.06.15-.36c9.47-22.88,31.6-37.67,56.38-37.67,33.64,0,61,27.36,61,61,0,9.13-1.97,17.92-5.85,26.12l-.16.33.27.25c1.72,1.57,3.34,3.28,4.8,5.09l.19.24.3-.07c2.93-.64,5.94-.97,8.94-.97,22.88,0,41.5,18.62,41.5,41.5s-18.62,41.5-41.5,41.5c-10.76,0-20.96-4.1-28.72-11.55l-.22-.21-.29.11c-4.89,1.77-10.02,2.66-15.26,2.66-8.81,0-17.35-2.55-24.68-7.37l-.44-.29-.27.45c-14.48,24.18-40.97,39.21-69.12,39.21Z"/><path class="cls-1" d="m67,346.5c33.36,0,60.5,27.14,60.5,60.5,0,9.06-1.95,17.77-5.8,25.9l-.32.67.55.5c1.71,1.55,3.3,3.24,4.74,5.04l.39.48.61-.13c2.9-.63,5.87-.96,8.84-.96,22.61,0,41,18.39,41,41s-18.39,41-41,41c-10.63,0-20.7-4.05-28.38-11.41l-.45-.43-.58.21c-4.84,1.75-9.91,2.63-15.09,2.63-8.72,0-17.15-2.52-24.4-7.29l-.87-.57-.54.9c-6.98,11.66-16.89,21.42-28.64,28.23-12.12,7.02-25.96,10.73-40.05,10.73-44.11,0-80-35.89-80-80S-46.61,383.5-2.5,383.5c4.15,0,8.36.33,12.51.97l.78.12.3-.73c9.39-22.7,31.34-37.36,55.92-37.36m0-1c-25.64,0-47.61,15.68-56.84,37.98-4.13-.64-8.35-.98-12.66-.98-44.74,0-81,36.26-81,81s36.26,81,81,81c29.55,0,55.4-15.82,69.55-39.45,7.16,4.71,15.74,7.45,24.95,7.45,5.42,0,10.61-.95,15.43-2.69,7.55,7.24,17.79,11.69,29.07,11.69,23.2,0,42-18.8,42-42s-18.8-42-42-42c-3.11,0-6.13.34-9.05.98-1.48-1.84-3.1-3.56-4.85-5.15,3.78-7.98,5.9-16.91,5.9-26.33,0-33.97-27.53-61.5-61.5-61.5h0Z"/><circle class="cls-4" cx="70" cy="570" r="99.5"/><path class="cls-1" d="m70,471c54.59,0,99,44.41,99,99s-44.41,99-99,99-99-44.41-99-99,44.41-99,99-99m0-1c-55.23,0-100,44.77-100,100s44.77,100,100,100,100-44.77,100-100-44.77-100-100-100h0Z"/><circle class="cls-4" cx="70" cy="570" r="64.5"/><path class="cls-1" d="m70,506c35.29,0,64,28.71,64,64s-28.71,64-64,64-64-28.71-64-64,28.71-64,64-64m0-1c-35.9,0-65,29.1-65,65s29.1,65,65,65,65-29.1,65-65-29.1-65-65-65h0Z"/><path class="cls-4" d="m70,624.5c-7.86,0-15.46-1.64-22.59-4.89-2.52-1.16-4.96-2.51-7.24-4.01-13.32-8.71-22.14-22.72-24.2-38.43-.31-2.36-.47-4.78-.47-7.18,0-.18,0-.37,0-.55.14-14.26,5.75-27.68,15.78-37.8,1.55-1.57,3.21-3.06,4.92-4.41,6.23-4.92,13.28-8.36,20.96-10.22,2.21-.53,4.52-.93,6.85-1.19,1.96-.22,3.98-.33,5.99-.33,8.9,0,17.37,2.07,25.18,6.16,2.07,1.07,4.15,2.33,6.18,3.77,11.78,8.29,19.92,21.14,22.35,35.26.35,2.05.59,4.14.7,6.19.06,1.03.09,2.08.09,3.12,0,11.91-3.78,23.23-10.92,32.73-1.55,2.07-3.25,4.03-5.06,5.83-7.3,7.3-16.46,12.35-26.49,14.61-2.05.47-4.14.82-6.23,1.03-1.87.2-3.82.31-5.8.31Z"/><path class="cls-1" d="m70,516c8.82,0,17.21,2.05,24.95,6.11,2.05,1.06,4.11,2.31,6.12,3.73,11.67,8.21,19.74,20.95,22.14,34.93.35,2.03.58,4.1.7,6.14.06,1.02.09,2.06.09,3.09,0,11.81-3.74,23.02-10.82,32.43-1.53,2.05-3.22,3.99-5.02,5.77-7.23,7.23-16.31,12.24-26.25,14.47-2.02.46-4.1.81-6.18,1.02-1.84.2-3.78.3-5.74.3-7.79,0-15.32-1.63-22.38-4.84-2.5-1.15-4.92-2.49-7.18-3.98-13.19-8.63-21.93-22.51-23.98-38.07-.31-2.34-.46-4.73-.46-7.11,0-.17,0-.35,0-.57.14-14.11,5.69-27.41,15.63-37.44,1.54-1.56,3.18-3.03,4.88-4.37,6.17-4.87,13.16-8.28,20.76-10.12,2.19-.53,4.48-.92,6.79-1.18,1.94-.21,3.94-.32,5.93-.32m0-1c-2.04,0-4.05.11-6.04.33-2.35.26-4.66.66-6.91,1.2-7.84,1.9-15.02,5.47-21.15,10.31-1.75,1.38-3.41,2.87-4.97,4.45-9.72,9.81-15.77,23.26-15.92,38.13-.01.19-.01.39-.01.58,0,2.45.16,4.87.47,7.24,2.13,16.22,11.34,30.22,24.42,38.78,2.32,1.53,4.76,2.88,7.31,4.05,6.95,3.16,14.67,4.93,22.8,4.93,1.98,0,3.93-.1,5.85-.31,2.14-.22,4.24-.57,6.29-1.04,10.31-2.32,19.52-7.53,26.73-14.74,1.84-1.83,3.55-3.8,5.11-5.88,6.92-9.2,11.02-20.63,11.02-33.03,0-1.06-.03-2.11-.09-3.15-.12-2.12-.36-4.2-.71-6.25-2.52-14.67-10.86-27.35-22.55-35.58-1.99-1.4-4.07-2.68-6.24-3.8-7.6-3.98-16.24-6.22-25.41-6.22h0Z"/><path class="cls-4" d="m75.76,551.59l19.82-29.72c1.82.96,3.64,2.07,5.43,3.31l-15.92,30.87-9.33-4.46Z"/><path class="cls-1" d="m95.74,522.53c1.55.83,3.09,1.78,4.62,2.82l-15.49,30.05-8.37-4,19.25-28.86m-.33-1.31l-20.39,30.57,10.29,4.92,16.34-31.69c-1.99-1.4-4.07-2.68-6.24-3.8h0Z"/><path class="cls-4" d="m46.98,619.42c-2.25-1.06-4.43-2.27-6.49-3.6l13.17-37.1,10.82,7.41-17.5,33.28Z"/><path class="cls-1" d="m53.92,579.5l9.91,6.79-17.07,32.47c-1.96-.94-3.86-2-5.66-3.15l12.82-36.11m-.51-1.56l-13.52,38.08c2.32,1.53,4.76,2.88,7.31,4.05l17.93-34.1-11.72-8.03h0Z"/><path class="cls-4" d="m31.6,531.33c1.35-1.35,2.78-2.63,4.26-3.81l24.37,25.48-5.08,8.28-23.54-29.95Z"/><path class="cls-1" d="m35.81,528.19l23.78,24.87-4.51,7.34-22.82-29.03c1.14-1.12,2.33-2.18,3.55-3.18m.09-1.35c-1.75,1.38-3.41,2.87-4.97,4.45l24.26,30.86,5.66-9.22-24.95-26.09h0Z"/><path class="cls-4" d="m79.27,585.96l8.17-7.76,25.88,24.89c-1.39,1.82-2.9,3.55-4.49,5.17l-29.55-22.29Z"/><path class="cls-1" d="m87.44,578.88l25.21,24.25c-1.21,1.56-2.51,3.05-3.87,4.45l-28.73-21.67,7.39-7.03m0-1.38l-8.94,8.5,30.37,22.91c1.84-1.83,3.55-3.8,5.11-5.88l-26.54-25.53h0Z"/><path class="cls-4" d="m89.39,562.62l34.39-1.51c.29,1.76.49,3.54.6,5.3l-33.48,4.52-1.52-8.32Z"/><path class="cls-1" d="m123.36,561.64c.22,1.44.39,2.9.5,4.35l-32.54,4.4-1.33-7.28,33.38-1.46m.84-1.04l-35.41,1.55,1.71,9.35,34.41-4.65c-.12-2.12-.36-4.2-.71-6.25h0Z"/><path class="cls-4" d="m15.91,576.7c-.27-2.21-.41-4.47-.41-6.7v-.15l34.5-5.27v9.46l-34.09,2.67Z"/><path class="cls-1" d="m49.5,565.16v8.41l-33.15,2.59c-.22-1.95-.34-3.92-.35-5.89l33.5-5.12m1-1.16l-35.49,5.42c-.01.19-.01.39-.01.58,0,2.45.16,4.87.47,7.24l35.03-2.74v-10.5h0Z"/><path class="cls-4" d="m68.1,588.89l8.97-1.79,4.52,36.17c-1.76.39-3.56.68-5.35.88l-8.13-35.26Z"/><path class="cls-1" d="m76.64,587.69l4.39,35.18c-1.46.31-2.93.55-4.41.73l-7.92-34.32,7.94-1.59m.86-1.19l-10,2,8.35,36.19c2.14-.22,4.24-.57,6.29-1.04l-4.64-37.15h0Z"/><path class="cls-4" d="m57.6,516.92c1.95-.45,3.96-.8,5.99-1.04l8.3,33.2-10.59,1.36-3.7-33.52Z"/><path class="cls-1" d="m63.2,516.43l8.05,32.23-9.52,1.23-3.59-32.57c1.65-.37,3.35-.66,5.06-.88m.76-1.1c-2.35.26-4.66.66-6.91,1.2l3.8,34.47,11.65-1.5-8.54-34.17h0Z"/><circle class="cls-4" cx="70" cy="570" r="24.5"/><path class="cls-1" d="m70,546c13.23,0,24,10.77,24,24s-10.77,24-24,24-24-10.77-24-24,10.77-24,24-24m0-1c-13.81,0-25,11.19-25,25s11.19,25,25,25,25-11.19,25-25-11.19-25-25-25h0Z"/><line class="cls-2" x1="-15.89" y1="519.66" x2="-.11" y2="513.34"/><line class="cls-2" x1="-6.5" y1="506.5" x2="11.5" y2="502.5"/><line class="cls-2" x1="2.29" y1="497" x2="20.71" y2="496"/><line class="cls-2" x1="14.5" y1="487.5" x2="30.5" y2="489.5"/><line class="cls-2" x1="26.68" y1="480.53" x2="42.32" y2="484.47"/><line class="cls-2" x1="38.5" y1="475.5" x2="57.5" y2="481.5"/><line class="cls-2" x1="56.37" y1="471.52" x2="72.5" y2="480.5"/><line class="cls-2" x1="70.5" y1="470.5" x2="86.5" y2="481.5"/><line class="cls-2" x1="85.14" y1="471.67" x2="99.86" y2="484.33"/><line class="cls-2" x1="97.5" y1="474.5" x2="110.5" y2="488.5"/><line class="cls-2" x1="113.63" y1="480.56" x2="121.5" y2="493.5"/><line class="cls-2" x1="122.5" y1="485.5" x2="130.5" y2="499.5"/><line class="cls-2" x1="143.9" y1="503.4" x2="147.1" y2="518.6"/><line class="cls-2" x1="151.9" y1="513.26" x2="153.1" y2="528.74"/><line class="cls-2" x1="134.96" y1="494.66" x2="140.04" y2="509.34"/><line class="cls-2" x1="158.5" y1="524.5" x2="157.5" y2="540.5"/><line class="cls-2" x1="164.65" y1="539.23" x2="161.5" y2="553.5"/><line class="cls-2" x1="161.5" y1="570.5" x2="168.5" y2="556.5"/><line class="cls-2" x1="169.41" y1="572.46" x2="159.5" y2="584.5"/><line class="cls-2" x1="168.5" y1="585.5" x2="155.5" y2="595.5"/><line class="cls-2" x1="165.77" y1="596.41" x2="151.5" y2="604.5"/><line class="cls-2" x1="161.86" y1="608.86" x2="148.5" y2="614.5"/><line class="cls-2" x1="156.86" y1="618.86" x2="143.5" y2="622.5"/><path class="cls-4" d="m88.46,701.56c-15.72,0-30.56-8.35-38.73-21.8l-.27-.45-.43.29c-8.69,5.84-18.34,9.91-28.68,12.08-5.57,1.17-11.25,1.77-16.9,1.77-36.78,0-69.14-24.81-78.7-60.35l-.07-.25-.24-.09c-20.77-7.57-35.88-24.99-40.43-46.59-7.21-34.26,14.79-68,49.05-75.21,4.33-.91,8.75-1.37,13.14-1.37,17.92,0,35.11,7.67,47.16,21.05l.17.19.26-.03c3.26-.4,6.56-.6,9.83-.6,38.32,0,71.87,27.26,79.77,64.81,1.07,5.08,1.66,10.26,1.75,15.39v.52s.53-.03.53-.03c.96-.06,1.93-.09,2.89-.09,6.41,0,12.63,1.34,18.5,3.98l.33.15.24-.27c3.68-4.01,8.45-6.72,13.81-7.85,1.78-.38,3.6-.56,5.4-.56,12.26,0,22.99,8.72,25.51,20.73,2.79,13.24-5.18,26.59-18.14,30.41l-.35.1v.36c-.77,20.86-15.57,38.43-36.02,42.73-3.1.65-6.26.98-9.39.98Z"/><path class="cls-1" d="m-53.81,510.08c17.78,0,34.84,7.61,46.79,20.89l.35.39.52-.06c3.24-.39,6.52-.59,9.77-.59,18.32,0,36.33,6.35,50.71,17.88,14.57,11.69,24.72,28.21,28.58,46.53,1.06,5.05,1.65,10.2,1.74,15.29l.02,1.05,1.05-.07c.95-.06,1.91-.09,2.86-.09,6.34,0,12.49,1.32,18.29,3.94l.66.3.49-.53c3.61-3.93,8.29-6.59,13.54-7.7,1.75-.37,3.53-.55,5.3-.55,12.02,0,22.55,8.55,25.03,20.33,2.73,12.98-5.08,26.08-17.8,29.82l-.69.2-.03.72c-.75,20.63-15.39,38.01-35.61,42.26-3.06.64-6.19.97-9.29.97-15.54,0-30.22-8.26-38.31-21.56l-.54-.89-.87.58c-8.63,5.8-18.22,9.84-28.5,12.01-5.54,1.17-11.19,1.76-16.79,1.76-36.56,0-68.72-24.66-78.22-59.98l-.14-.5-.49-.18c-20.6-7.51-35.6-24.79-40.11-46.23-3.47-16.46-.31-33.29,8.88-47.39,9.19-14.09,23.32-23.76,39.79-27.23,4.3-.91,8.69-1.36,13.04-1.36m0-1c-4.37,0-8.8.45-13.25,1.39-34.58,7.28-56.72,41.22-49.44,75.8,4.73,22.44,20.68,39.64,40.75,46.96,9.74,36.22,42.67,60.72,79.19,60.72,5.6,0,11.3-.58,17-1.78,10.64-2.24,20.36-6.44,28.85-12.16,8.22,13.53,23.07,22.04,39.16,22.04,3.13,0,6.31-.32,9.49-.99,21.05-4.43,35.66-22.63,36.4-43.21,13.18-3.88,21.37-17.32,18.49-30.99-2.64-12.53-13.69-21.12-26-21.12-1.81,0-3.66.19-5.5.58-5.62,1.18-10.46,4.06-14.07,8-5.79-2.61-12.14-4.03-18.71-4.03-.97,0-1.95.03-2.92.09-.09-5.12-.67-10.29-1.76-15.48-8.14-38.67-42.25-65.21-80.26-65.21-3.27,0-6.58.2-9.89.6-11.93-13.25-29.15-21.22-47.53-21.22h0Z"/></g><g id="Cigarette"><path class="cls-4" d="m-39.75,241.81c-6.89,0-13.01-6.46-14.23-15.03-1.33-9.28,3.59-17.69,10.96-18.74l44.05-6.29,4.81,33.66-44.05,6.29c-.51.07-1.02.11-1.53.11Z"/><path class="cls-1" d="m.6,202.32l4.67,32.67-43.56,6.22c-.48.07-.98.1-1.46.1-6.64,0-12.55-6.28-13.74-14.6-.63-4.4.15-8.73,2.18-12.18,1.99-3.38,4.96-5.51,8.35-5.99L.6,202.32m.85-1.13l-44.55,6.36c-7.65,1.09-12.75,9.74-11.38,19.3,1.27,8.89,7.68,15.46,14.73,15.46.53,0,1.07-.04,1.61-.11l44.55-6.36-4.95-34.65h0Z"/><path class="cls-4" d="m5.94,235.36c-5.75,0-11.22-6.75-12.45-15.36-1.33-9.3,2.57-17.58,8.69-18.46l225.59-32.23,4.82,33.74L7,235.29c-.35.05-.7.07-1.05.07Z"/><path class="cls-1" d="m227.37,169.83l4.69,32.84L6.93,234.84c-.33.05-.66.07-.99.07-5.53,0-10.8-6.58-12-14.97-1.29-9.05,2.43-17.1,8.3-17.94l225.13-32.16m.77-1.03L2.11,201.09c-6.38.91-10.44,9.41-9.07,18.97,1.29,9,6.93,15.75,12.91,15.75.37,0,.75-.03,1.12-.08l226.04-32.29-4.95-34.65h0Z"/><path class="cls-4" d="m231.49,203.06c-6.89,0-13.01-6.46-14.23-15.03-.65-4.52.15-8.96,2.25-12.5,2.07-3.51,5.17-5.73,8.71-6.23.51-.07,1.03-.11,1.54-.11,6.89,0,13.01,6.46,14.23,15.03.65,4.52-.15,8.96-2.25,12.5-2.07,3.51-5.17,5.73-8.71,6.23-.51.07-1.03.11-1.54.11Z"/><path class="cls-1" d="m229.76,169.69h0c6.64,0,12.55,6.28,13.74,14.6.63,4.4-.15,8.73-2.18,12.18-1.99,3.38-4.96,5.51-8.36,5.99-.48.07-.98.1-1.47.1-6.64,0-12.55-6.28-13.74-14.6-.63-4.4.15-8.73,2.18-12.18,1.99-3.38,4.96-5.51,8.36-5.99.48-.07.98-.1,1.47-.1m0-1c-.53,0-1.07.04-1.61.11-7.65,1.09-12.75,9.74-11.38,19.3,1.27,8.9,7.68,15.46,14.73,15.46.53,0,1.07-.04,1.61-.11,7.65-1.09,12.75-9.74,11.38-19.3-1.27-8.9-7.68-15.46-14.73-15.46h0Z"/><path class="cls-3" d="m226.31,194.82c.59-1.23,1.17-2.94.42-4.1-.68-1.06-2-.94-2.26-1.7-.23-.66.36-1.94,4.38-4.67"/><path class="cls-3" d="m225.89,177.71c2.1-1.75,3.2-1.86,3.82-1.56,1,.49.87,2.11,1.98,6.79.74,3.13,1.13,3.78,1.56,3.82.62.06,1.26-1.19,1.7-2.26"/><path class="cls-3" d="m231.97,191.99c-1.53,2.33-2.05,4.48-1.27,5.23.76.73,2.58,0,3.96-.57,1.29-.52,4.7-1.91,4.53-3.68-.16-1.61-3.18-2.49-3.39-2.55"/></g><g id="Birdtree"><path class="cls-4" d="m445.5,1181.5c-19.9-.27-36-16.54-36-36.5v-352.5h36v389Z"/><path class="cls-1" d="m445,793v387.99c-19.39-.53-35-16.47-35-35.99v-352h35m1-1h-37v353c0,20.43,16.57,37,37,37h0v-390h0Z"/><path class="cls-4" d="m409.5,1077.5c-13.28-.27-24-11.15-24-24.5v-30.5h-69.5c-.32,0-.65,0-.97-.03-4.3-.23-8.35-2.04-11.41-5.09-3.3-3.31-5.12-7.71-5.12-12.38v-53.5h17v51h69.5c.33,0,.66,0,.98.02,6.17.25,11.98,2.79,16.34,7.15,4.63,4.63,7.17,10.78,7.17,17.33v50.5Z"/><path class="cls-1" d="m315,952v51h70c.32,0,.65,0,.96.02,6.05.24,11.74,2.73,16.01,7.01,4.53,4.53,7.03,10.56,7.03,16.97v49.98c-12.77-.53-23-11.08-23-23.98v-31h-70c-.31,0-.63,0-.95-.03-4.17-.23-8.11-1.99-11.08-4.95-3.21-3.22-4.98-7.49-4.98-12.02v-53h16m1-1h-18v54c0,4.97,2.02,9.47,5.27,12.73,3.04,3.03,7.16,4.99,11.73,5.24.33.02.67.03,1,.03h69v30c0,13.81,11.19,25,25,25v-51c0-6.9-2.8-13.16-7.32-17.68-4.3-4.3-10.18-7.04-16.68-7.3-.33,0-.67-.02-1-.02h-69v-51h0Z"/><circle class="cls-4" cx="334" cy="860" r="75"/><path class="cls-1" d="m334,785.5c41.08,0,74.5,33.42,74.5,74.5s-33.42,74.5-74.5,74.5-74.5-33.42-74.5-74.5,33.42-74.5,74.5-74.5m0-1c-41.7,0-75.5,33.8-75.5,75.5s33.8,75.5,75.5,75.5,75.5-33.8,75.5-75.5-33.8-75.5-75.5-75.5h0Z"/><path class="cls-2" d="m321.5,865.5c-3.86,2.56-12.77,9.25-13,18-.32,12.25,16.45,26.84,43,28"/><path class="cls-2" d="m365.5,868.5c9.95,3.07,12.05,5.4,12,7-.11,3.23-9.04,4.54-9,8,.03,3.2,7.72,4.15,8,8,.25,3.45-5.68,5.57-5,8,.7,2.51,7.47,1.8,8,4,.36,1.49-2.37,3.45-5,5"/><path class="cls-4" d="m476.97,920.33c-6.38,0-12.89-.4-18.82-1.15-30.47-3.86-57.92-18.12-63.43-26.23-.83-1.23-1.15-2.28-.93-3.12.7-2.71,7.38-4.27,18.33-4.27s26.1,1.58,38.81,4.11c25.89,5.17,56.53,17.32,55.37,24.15-.65,3.84-12.71,6.51-29.32,6.51h0Z"/><path class="cls-1" d="m412.11,886.06c11.2,0,26.03,1.57,38.71,4.1,12.77,2.55,26.92,6.85,37.85,11.49,13.19,5.61,17.49,9.92,17.13,12.08-.51,3.03-10.58,6.1-28.83,6.1-6.36,0-12.84-.4-18.76-1.15-29.88-3.79-57.75-18.17-63.08-26.02-.74-1.09-1.04-2.03-.86-2.71.24-.91,2.22-3.89,17.85-3.89m0-1c-10.25,0-17.96,1.31-18.82,4.65-1.93,7.51,30.76,25.66,64.79,29.97,6.07.77,12.62,1.15,18.88,1.15,15.36,0,29.03-2.31,29.82-6.93,1.24-7.31-29.91-19.56-55.77-24.72-11.96-2.39-27.11-4.12-38.91-4.12h0Z"/><path class="cls-4" d="m487.51,948.46c-9.74,0-26.21-3.95-40.06-9.59-28.45-11.6-51.29-32.45-54.52-41.72-.49-1.4-.52-2.5-.1-3.25.63-1.13,2.39-1.7,5.23-1.7,10.62,0,33.77,8.28,50.01,16.29,23.68,11.67,50.14,31.33,47.27,37.62-.7,1.54-3.41,2.35-7.83,2.35h0Z"/><path class="cls-1" d="m398.07,892.7c10.55,0,33.6,8.26,49.79,16.24,11.68,5.76,24.24,13.56,33.6,20.87,11.29,8.82,14.34,14.1,13.43,16.09-.6,1.31-3.29,2.06-7.38,2.06-9.67,0-26.07-3.93-39.87-9.56-27.89-11.37-51.11-32.46-54.23-41.42-.43-1.24-.48-2.23-.13-2.84.52-.93,2.23-1.44,4.8-1.44m0-1c-2.89,0-4.9.6-5.67,1.95-3.8,6.75,23.1,32.73,54.86,45.68,13.55,5.52,30.32,9.63,40.25,9.63,4.39,0,7.45-.8,8.29-2.64,3.09-6.74-23.85-26.62-47.5-38.27-16.14-7.95-39.38-16.34-50.23-16.34h0Z"/><path class="cls-4" d="m457.88,902.84c-29.38,0-55.78-9.1-61.77-15.62-.94-1.02-1.38-1.96-1.3-2.78.51-5.99,26.5-9.7,50.27-9.7,2.08,0,4.12.03,6.05.09,26.39.81,58.62,7.73,58.6,14.65-.01,6.13-25.63,12.41-46.59,13.26-1.72.07-3.5.1-5.26.1h0Z"/><path class="cls-1" d="m445.08,875.24c2.07,0,4.11.03,6.04.09,13.02.4,27.68,2.3,39.23,5.07,13.93,3.35,18.89,6.89,18.89,9.08,0,1.93-3.92,5.06-14.9,8.07-9.16,2.52-20.83,4.27-31.21,4.68-1.72.07-3.48.1-5.25.1-29.25,0-55.47-9-61.4-15.46-.58-.63-1.25-1.55-1.17-2.4.42-4.92,23.68-9.24,49.77-9.24m0-1c-22.2,0-50.19,3.41-50.77,10.16-.63,7.33,31.05,18.95,63.57,18.95,1.76,0,3.52-.03,5.29-.1,21.08-.85,47.06-7.15,47.07-13.75.01-7.42-32.74-14.34-59.09-15.15-1.95-.06-3.99-.09-6.07-.09h0Z"/><path class="cls-4" d="m209.03,857.03c-.55,0-.67-.18-.71-.24-.82-1.19,2.62-6.37,7.67-10.5,5.24-4.31,10.25-5.69,14.68-6.91,4.3-1.19,8.02-2.21,10.16-5.77,1.71-2.84,1.97-6.6.76-11.17-2.38-5.9-3.58-12.09-3.58-18.44,0-27.02,21.98-49,49-49s49,21.98,49,49-21.98,49-49,49c-9.26,0-18.28-2.6-26.07-7.51l-.12-.07h-.14c-.7-.02-1.53-.04-2.46-.04-2.17,0-4.38.08-6.57.24-15.51,1.11-27.76,6.01-35.08,8.95-3.58,1.44-6.17,2.47-7.53,2.47h0Z"/><path class="cls-1" d="m287,755.5c26.74,0,48.5,21.76,48.5,48.5s-21.76,48.5-48.5,48.5c-9.17,0-18.09-2.57-25.81-7.44l-.23-.15h-.27c-.81-.03-1.64-.04-2.47-.04-2.18,0-4.4.08-6.61.24-15.59,1.11-27.88,6.04-35.23,8.98-3.4,1.36-6.09,2.44-7.35,2.44-.19,0-.28-.03-.3-.03,0,0,0,0,0,0-.42-.9,2.47-5.64,7.57-9.82,5.16-4.24,10.12-5.61,14.49-6.81,4.4-1.21,8.21-2.26,10.45-5.99,1.78-2.96,2.06-6.85.82-11.56l-.02-.06-.02-.06c-2.34-5.78-3.53-11.9-3.53-18.19,0-26.74,21.76-48.5,48.5-48.5m0-1c-27.34,0-49.5,22.16-49.5,49.5,0,6.57,1.28,12.84,3.6,18.57,1.44,5.47.52,8.75-.71,10.79-4.09,6.81-14.12,3.84-24.72,12.55-4.65,3.81-8.93,9.48-7.76,11.17.22.31.59.45,1.12.45,4.44,0,19.72-9.79,42.65-11.42,2.5-.18,4.72-.23,6.54-.23.93,0,1.75.01,2.44.03,7.63,4.81,16.66,7.59,26.34,7.59,27.34,0,49.5-22.16,49.5-49.5s-22.16-49.5-49.5-49.5h0Z"/><line class="cls-2" x1="280.5" y1="826.5" x2="272.5" y2="833.5"/><line class="cls-2" x1="272.5" y1="825.5" x2="279.5" y2="833.5"/><line class="cls-2" x1="242.5" y1="820.5" x2="248.5" y2="818.5"/><line class="cls-2" x1="247.5" y1="823.5" x2="243.5" y2="815.5"/><path class="cls-4" d="m288.5,967c-24.37,0-44.23-19.69-44.5-44h179.99c-.27,24.31-20.13,44-44.5,44h-91Z"/><path class="cls-1" d="m423.49,923.5c-.53,23.8-20.06,43-43.99,43h-91c-23.93,0-43.45-19.2-43.99-43h178.98m1.01-1h-181c0,24.85,20.15,45,45,45h91c24.85,0,45-20.15,45-45h0Z"/><path class="cls-4" d="m354.5,1002.5v-8.5c0-5.47,4.1-9.97,9.54-10.45.32-.03.63-.05.96-.05h15.5v-23h10v22.5c0,.32-.02.64-.05.95-.21,2.44-1.29,4.73-3.03,6.47-1.98,1.98-4.62,3.07-7.43,3.07h-15.5v9h-10Z"/><path class="cls-1" d="m390,961v22c0,.28-.01.56-.05.91-.2,2.32-1.22,4.5-2.88,6.16-1.89,1.89-4.4,2.93-7.07,2.93h-16v9h-9v-8c0-5.21,3.91-9.49,9.09-9.95.34-.03.63-.05.91-.05h16v-23h9m1-1h-11v23h-15c-.34,0-.67.02-1,.05-5.61.5-10,5.21-10,10.95v9h11v-9h15c3.04,0,5.79-1.23,7.78-3.22,1.77-1.77,2.94-4.14,3.17-6.78.03-.33.05-.66.05-1v-23h0Z"/><path class="cls-4" d="m286,993.5c-2.54,0-4.92-.99-6.72-2.78-1.55-1.55-2.52-3.6-2.74-5.77-.03-.31-.05-.63-.05-.95v-22.5h11v23h11v9h-12.5Z"/><path class="cls-1" d="m287,962v23h11v8h-12c-2.4,0-4.66-.94-6.36-2.64-1.47-1.47-2.39-3.41-2.59-5.45-.03-.34-.05-.63-.05-.91v-22h10m1-1h-12v23c0,.34.02.67.05,1,.23,2.36,1.29,4.48,2.88,6.07,1.81,1.81,4.31,2.93,7.07,2.93h13v-10h-11v-23h0Z"/><path class="cls-4" d="m427,806c-10.98,0-21.61-3.93-29.93-11.08l-.12-.1h-.16c-16.74-1.53-31.3-12.07-38.01-27.54l-.13-.31h-.34c-.44.02-.87.03-1.31.03-25.36,0-46-20.64-46-46,0-.51,0-1.02.03-1.53l.02-.54-.54.02c-.66.03-1.34.05-2.01.05-23.43,0-42.5-19.07-42.5-42.5s19.07-42.5,42.5-42.5c.71,0,1.41.02,2.11.06l.57.03-.04-.56c-.09-1.37-.14-2.73-.14-4.03,0-28.15,20.05-52.33,47.67-57.5l.13-.02.1-.08c9.29-7.67,21.04-11.9,33.1-11.9,26.27,0,48.46,19.63,51.61,45.66l.03.28.26.12c4.47,2.02,8.57,4.73,12.2,8.05,12.48,8.65,19.9,22.8,19.9,37.89,0,1.75-.1,3.56-.31,5.37-.16,1.35-.37,2.67-.65,4.02l-.09.45.44.13c.89.27,1.77.57,2.6.89,17.96,6.64,30.02,23.98,30.02,43.13,0,21.46-14.57,39.88-35.43,44.78l-.47.11.09.47c.54,2.82.81,5.73.81,8.64,0,25.36-20.64,46-46,46Z"/><path class="cls-1" d="m392,560.5c26.01,0,47.99,19.44,51.12,45.22l.07.56.51.23c4.42,2,8.48,4.68,12.07,7.97l.05.05.06.04c12.29,8.52,19.63,22.51,19.63,37.44,0,1.74-.1,3.52-.3,5.31-.16,1.35-.37,2.65-.65,3.98l-.19.9.88.27c.88.27,1.74.56,2.57.88,17.76,6.57,29.69,23.71,29.69,42.66,0,10.46-3.45,20.3-9.99,28.45-6.35,7.91-15.25,13.54-25.06,15.85l-.93.22.18.94c.53,2.79.8,5.66.8,8.54,0,25.09-20.41,45.5-45.5,45.5-10.86,0-21.38-3.89-29.61-10.96l-.24-.21-.32-.03c-16.56-1.5-30.96-11.93-37.59-27.22l-.27-.62-.67.02c-.43,0-.86.02-1.3.02-25.09,0-45.5-20.41-45.5-45.5,0-.51,0-1,.03-1.51l.04-1.09-1.09.05c-.74.03-1.39.05-1.99.05-23.16,0-42-18.84-42-42s18.84-42,42-42c.7,0,1.39.02,2.08.06l1.13.06-.08-1.13c-.09-1.36-.14-2.7-.14-3.99,0-27.91,19.88-51.88,47.26-57.01l.25-.05.2-.16c9.2-7.6,20.84-11.78,32.78-11.78m0-1c-12.7,0-24.34,4.51-33.42,12.01-27.37,5.12-48.08,29.14-48.08,57.99,0,1.36.05,2.72.14,4.06-.71-.04-1.42-.06-2.14-.06-23.75,0-43,19.25-43,43s19.25,43,43,43c.68,0,1.36-.02,2.03-.05-.02.52-.03,1.03-.03,1.55,0,25.68,20.82,46.5,46.5,46.5.44,0,.88-.01,1.32-.02,6.61,15.25,21.15,26.26,38.42,27.82,8.14,6.99,18.7,11.2,30.26,11.2,25.68,0,46.5-20.82,46.5-46.5,0-2.98-.28-5.9-.82-8.73,20.53-4.83,35.82-23.27,35.82-45.27,0-19.99-12.63-37.05-30.34-43.6-.86-.33-1.74-.63-2.63-.9.28-1.34.5-2.69.66-4.07.2-1.78.31-3.59.31-5.43,0-15.86-7.94-29.86-20.06-38.26-3.63-3.33-7.79-6.09-12.33-8.14-3.15-25.97-25.29-46.1-52.11-46.1h0Z"/></g><g id="Key"><path class="cls-1" d="m103.17,286.63h0c4.78,0,11.04,3.61,15.95,9.21,6.86,7.81,9.21,17.42,5.13,21-1.06.93-2.48,1.4-4.21,1.4-4.78,0-11.04-3.61-15.95-9.21-6.86-7.81-9.21-17.42-5.13-21,1.06-.93,2.48-1.4,4.21-1.4m0-1c-1.91,0-3.59.53-4.87,1.65-4.57,4.01-2.31,14.04,5.04,22.41,5.29,6.03,11.78,9.55,16.71,9.55,1.91,0,3.59-.53,4.87-1.65,4.57-4.01,2.31-14.04-5.04-22.41-5.29-6.03-11.78-9.55-16.71-9.55h0Z"/><path class="cls-4" d="m13.72,375.1l78.03-68.53-.22-.36c-8.95-14.54-9.73-29.5-1.9-36.38,2.87-2.52,6.6-3.8,11.09-3.8,10.39,0,22.9,6.89,32.63,17.97,14.37,16.36,18.15,36.64,8.41,45.19-2.87,2.52-6.6,3.8-11.08,3.8h0c-7.58,0-16.6-3.78-24.74-10.38l-.33-.27-50.98,44.77,11.22,12.77-3.01,2.64-6.6-7.51-6.01,5.28,6.6,7.51-3.01,2.64-11.22-12.77-6.01,5.28,11.22,12.77-9.02,7.92-25.08-28.55Zm92.77-94.42c-2.29,0-4.18.65-5.64,1.93-2.55,2.24-3.36,6.12-2.28,10.93,1.06,4.7,3.81,9.75,7.74,14.23,5.73,6.53,12.86,10.58,18.6,10.58,2.29,0,4.18-.65,5.64-1.93,2.55-2.24,3.36-6.12,2.28-10.93-1.06-4.7-3.81-9.75-7.74-14.23-5.73-6.53-12.86-10.59-18.6-10.59Z"/><path class="cls-1" d="m100.72,265.54v1c10.26,0,22.62,6.82,32.26,17.8,6.93,7.89,11.6,16.92,13.15,25.41,1.51,8.31-.15,15.08-4.69,19.07-2.77,2.44-6.39,3.67-10.76,3.67-7.47,0-16.37-3.74-24.42-10.26l-.66-.53-.63.56-50.29,44.17-.75.66.66.75,10.56,12.02-2.25,1.98-5.94-6.76-.66-.75-.75.66-5.26,4.62-.75.66.66.75,5.94,6.76-2.25,1.98-10.56-12.02-.66-.75-.75.66-5.26,4.62-.75.66.66.75,10.56,12.02-8.26,7.26-24.42-27.8,77.34-67.92.63-.56-.44-.72c-8.82-14.33-9.64-29.03-1.99-35.74,2.78-2.44,6.4-3.67,10.76-3.67v-1m24.19,53.31c2.38,0,4.44-.71,5.97-2.05,2.7-2.37,3.56-6.42,2.44-11.41-1.08-4.78-3.86-9.91-7.85-14.45-5.83-6.63-13.1-10.76-18.98-10.76-2.38,0-4.44.71-5.97,2.05-5.48,4.81-3.1,16.17,5.41,25.86,5.83,6.63,13.1,10.76,18.98,10.76m-24.18-53.31c-4.44,0-8.39,1.26-11.42,3.92-8.23,7.23-7.09,22.55,1.8,37.01L13.01,375.06l25.74,29.3,9.77-8.58-11.22-12.77,5.26-4.62,11.22,12.77,3.76-3.3-6.6-7.51,5.26-4.62,6.6,7.51,3.76-3.3-11.22-12.77,50.29-44.17c8.34,6.76,17.42,10.49,25.05,10.49,4.44,0,8.39-1.26,11.42-3.92,9.96-8.74,6.21-29.29-8.36-45.89-10.14-11.55-22.86-18.14-33.01-18.14h0Zm24.18,52.31c-5.37,0-12.45-3.84-18.22-10.42-8.02-9.13-10.48-20.07-5.5-24.45,1.39-1.22,3.22-1.8,5.31-1.8,5.37,0,12.45,3.84,18.22,10.42,8.02,9.13,10.48,20.07,5.5,24.45-1.39,1.22-3.22,1.8-5.31,1.8h0Z"/><rect class="cls-4" x="25.51" y="368.4" width="6" height="38" transform="translate(-248.55 115.14) rotate(-41.29)"/><path class="cls-1" d="m18.18,371.85l24.42,27.8-3.76,3.3-24.42-27.8,3.76-3.3m.09-1.41l-5.26,4.62,25.74,29.3,5.26-4.62-25.74-29.3h0Z"/></g><g id="Flower"><path class="cls-4" d="m468.88,1537.44l-.47.16c-4.85,1.69-9.89,2.54-14.97,2.55-19.33,0-36.6-12.28-42.96-30.55l-66.43-190.75c4.62,3.87,10.43,5.99,16.46,5.99,2.86,0,5.7-.48,8.43-1.43,7.29-2.54,12.97-8.12,15.62-15.35,1.19.22,2.37.35,3.53.4l64.73,185.88.47-.16c4.85-1.69,9.88-2.54,14.97-2.54,6.8,0,13.65,1.57,19.8,4.54,10.94,5.3,19.17,14.53,23.16,26l101.79,292.28-42.5,14.8-101.62-291.81Z"/><path class="cls-1" d="m384.86,1308.62c.96.16,1.91.27,2.84.32l64.46,185.09.33.94.94-.33c4.79-1.67,9.77-2.52,14.8-2.52,6.72,0,13.5,1.55,19.59,4.49,10.82,5.24,18.96,14.37,22.91,25.72l101.62,291.81-41.55,14.47-101.3-290.87-.33-.94-.94.33c-4.8,1.67-9.78,2.52-14.81,2.52-19.12,0-36.2-12.14-42.49-30.21l-65.87-189.14c4.47,3.27,9.86,5.05,15.42,5.05,2.92,0,5.81-.49,8.59-1.46,7.3-2.54,13.01-8.08,15.78-15.26m-.65-1.14c-2.44,6.99-7.92,12.83-15.46,15.45-2.74.95-5.52,1.4-8.26,1.4-6.16,0-12.09-2.29-16.65-6.32-.13.19-.27.4-.42.59l66.57,191.15c6.61,18.99,24.41,30.89,43.43,30.89,5.02,0,10.13-.83,15.13-2.57l101.62,291.81,43.44-15.13-101.95-292.76c-4.18-11.99-12.82-21.16-23.42-26.29-6.18-2.98-13.02-4.59-20.02-4.59-5.02,0-10.12.83-15.13,2.57l-64.68-185.73c-1.42-.03-2.82-.2-4.21-.48h0Z"/><path class="cls-4" d="m360.49,1323.84c-6.01,0-11.8-2.2-16.31-6.19l-.42-.38-.17.26-34.9-100.21,42.5-14.8,36.54,104.92c-1.11-.06-2.25-.21-3.4-.44l-.43-.09-.14.41c-2.49,7.14-8.01,12.66-15.15,15.15-2.62.91-5.35,1.38-8.1,1.38Z"/><path class="cls-1" d="m350.87,1203.16l36.12,103.72c-.85-.08-1.71-.2-2.58-.38l-.85-.17-.29.82c-2.44,6.99-7.85,12.4-14.84,14.84-2.57.9-5.24,1.35-7.94,1.35-5.89,0-11.56-2.15-15.98-6.06l-.71-.63-34.49-99.02,41.55-14.47m.62-1.27l-43.44,15.13,35.38,101.6c.15-.19.29-.4.42-.59,4.55,4.03,10.48,6.32,16.65,6.32,2.74,0,5.53-.45,8.26-1.4,7.54-2.62,13.02-8.46,15.46-15.45,1.39.28,2.79.45,4.21.48l-36.94-106.08h0Z"/><path class="cls-4" d="m330.67,1238.2c-10.47,0-19.82-6.65-23.26-16.54-2.17-6.21-1.78-12.9,1.08-18.82,2.86-5.92,7.86-10.38,14.08-12.54,2.62-.91,5.35-1.38,8.1-1.38,10.47,0,19.82,6.65,23.26,16.54,2.17,6.21,1.78,12.9-1.08,18.82s-7.86,10.38-14.08,12.54c-2.62.91-5.35,1.38-8.1,1.38Z"/><path class="cls-1" d="m330.67,1189.42h0c10.26,0,19.41,6.51,22.79,16.2,2.12,6.09,1.74,12.64-1.06,18.44-2.81,5.8-7.7,10.17-13.79,12.29-2.57.9-5.24,1.35-7.94,1.35-10.26,0-19.41-6.51-22.79-16.2-2.12-6.09-1.74-12.64,1.06-18.44,2.81-5.8,7.7-10.17,13.79-12.29,2.57-.9,5.24-1.35,7.94-1.35m0-1c-2.74,0-5.53.45-8.27,1.4-13.11,4.57-20.03,18.89-15.47,32,3.61,10.37,13.34,16.87,23.73,16.87,2.74,0,5.53-.45,8.27-1.41,13.11-4.57,20.03-18.89,15.47-32-3.61-10.37-13.34-16.87-23.73-16.87h0Z"/><path class="cls-4" d="m360.49,1323.84c-6.01,0-11.8-2.2-16.31-6.19-.31-.27-.61-.54-.9-.83-2.74-2.67-4.78-5.87-6.05-9.52-1.36-3.92-2.82-11.06-3.88-19.12-2.13-15.97-2.88-36.37,1.4-45.72,1.15-2.52,2.61-4.1,4.34-4.71.56-.2,1.17-.29,1.81-.29,1.02,0,2.15.25,3.36.75,9.75,3.98,23.75,22.99,33.3,40.07,2.95,5.29,5.15,9.84,6.18,12.81.99,2.84,1.45,5.79,1.37,8.78-.06,2.51-.53,5.01-1.38,7.43-2.49,7.14-8.01,12.66-15.15,15.15-2.62.91-5.35,1.38-8.1,1.38Z"/><path class="cls-1" d="m340.91,1237.97h0c.96,0,2.02.24,3.18.72,9.59,3.91,23.85,23.4,33.05,39.85,2.94,5.27,5.12,9.79,6.15,12.73.97,2.78,1.42,5.67,1.34,8.61-.06,2.46-.52,4.91-1.35,7.28-2.44,6.99-7.85,12.4-14.84,14.84-2.57.9-5.24,1.35-7.94,1.35-5.89,0-11.56-2.15-16-6.08-.32-.28-.61-.54-.88-.81-2.68-2.6-4.67-5.74-5.92-9.31-1.35-3.88-2.8-10.99-3.86-19.02-2.12-15.9-2.88-36.19,1.36-45.45,1.09-2.39,2.45-3.88,4.05-4.44.51-.18,1.07-.27,1.65-.27m0-1c-.69,0-1.35.11-1.98.32-1.96.68-3.48,2.44-4.63,4.97-4.36,9.5-3.58,29.97-1.44,45.99,1.1,8.3,2.58,15.42,3.91,19.21,1.32,3.8,3.46,7.08,6.16,9.7.29.3.61.58.92.85,4.55,4.03,10.48,6.32,16.65,6.32,2.74,0,5.53-.45,8.26-1.4,7.54-2.62,13.02-8.46,15.46-15.45.85-2.42,1.34-4.98,1.4-7.58.08-2.96-.36-5.99-1.39-8.96-1.04-2.97-3.25-7.58-6.22-12.89-8.48-15.17-23.07-36.02-33.55-40.29-1.25-.52-2.44-.79-3.55-.79h0Z"/><path class="cls-4" d="m244.91,1268.25c-10.47,0-19.82-6.65-23.26-16.54-4.47-12.83,2.33-26.9,15.16-31.36,7.61-2.65,27.22-5.6,43.19-5.6s24.67,2.65,26.35,7.47c1.88,5.39-5.23,14.37-20.02,25.29-12.3,9.08-26.87,17.13-33.32,19.37-2.62.91-5.35,1.38-8.1,1.38Z"/><path class="cls-1" d="m280,1214.24v1c15.09,0,24.28,2.53,25.88,7.13,1.77,5.09-5.46,14.1-19.84,24.72-12.26,9.06-26.77,17.07-33.18,19.3-2.57.9-5.24,1.35-7.94,1.35-10.26,0-19.41-6.51-22.79-16.2-2.12-6.09-1.74-12.64,1.06-18.44s7.7-10.17,13.79-12.29c7.57-2.64,27.1-5.57,43.02-5.57v-1m0,0c-16.63,0-36.07,3.09-43.35,5.63-13.11,4.57-20.03,18.89-15.47,32,3.61,10.37,13.34,16.87,23.73,16.87,2.74,0,5.53-.45,8.27-1.4,13.11-4.57,58.21-32.19,53.64-45.3-2.03-5.83-13.52-7.8-26.82-7.8h0Z"/><path class="cls-4" d="m320.42,1189.64c-13.3,0-38.27-40.49-42.85-53.63-4.47-12.83,2.33-26.9,15.16-31.36,2.62-.91,5.35-1.38,8.1-1.38,10.47,0,19.82,6.65,23.26,16.54,2.25,6.45,4.99,22.86,5.51,38.14.63,18.37-1.99,29.52-7.38,31.4-.56.2-1.17.3-1.81.3Z"/><path class="cls-1" d="m300.84,1103.77h0c10.26,0,19.41,6.51,22.79,16.2,2.23,6.41,4.96,22.76,5.49,38,.61,17.87-1.96,29.13-7.04,30.91-.51.18-1.06.27-1.65.27-12.83,0-37.96-40.63-42.37-53.3-4.38-12.57,2.29-26.35,14.85-30.73,2.57-.9,5.24-1.35,7.94-1.35m0-1c-2.74,0-5.53.45-8.27,1.4-13.11,4.57-20.03,18.89-15.47,32,4.35,12.48,29.6,53.97,43.32,53.97.69,0,1.35-.1,1.98-.32,13.11-4.57,6.74-57.07,2.17-70.18-3.61-10.37-13.34-16.87-23.73-16.87h0Z"/><path class="cls-4" d="m381.45,1212.7c-15.32,0-24.67-2.65-26.35-7.47-1.88-5.39,5.23-14.37,20.02-25.29,12.3-9.08,26.87-17.13,33.32-19.37,2.62-.91,5.35-1.38,8.1-1.38,10.47,0,19.82,6.65,23.26,16.54,2.17,6.21,1.78,12.9-1.08,18.82-2.86,5.92-7.86,10.38-14.08,12.54-7.61,2.65-27.22,5.6-43.19,5.6Z"/><path class="cls-1" d="m416.54,1159.7h0c10.26,0,19.41,6.51,22.79,16.2,4.38,12.57-2.29,26.35-14.85,30.73-7.57,2.64-27.1,5.57-43.02,5.57-15.09,0-24.28-2.53-25.88-7.13-1.77-5.09,5.46-14.1,19.84-24.72,12.26-9.06,26.77-17.07,33.18-19.3,2.57-.9,5.24-1.35,7.94-1.35m0-1c-2.74,0-5.53.45-8.27,1.4-13.11,4.57-58.21,32.19-53.64,45.3,2.03,5.83,13.52,7.8,26.82,7.8,16.63,0,36.07-3.09,43.35-5.63,13.11-4.57,20.03-18.89,15.47-32-3.61-10.37-13.34-16.87-23.73-16.87h0Z"/><path class="cls-4" d="m291.18,1319.85c-3.72,0-7.32-.83-10.7-2.46-12.23-5.91-17.37-20.67-11.46-32.9,5.73-11.86,34.44-48.4,47.94-48.4.94,0,1.8.18,2.55.55,11.69,5.65.4,55.78-6.14,69.29-4.09,8.46-12.8,13.92-22.2,13.92Z"/><path class="cls-1" d="m316.96,1235.59v1c.87,0,1.65.17,2.33.5,4.85,2.34,6.11,13.83,3.45,31.51-2.27,15.08-6.86,31-9.82,37.12-4,8.28-12.54,13.64-21.75,13.64-3.65,0-7.18-.81-10.49-2.41-5.8-2.81-10.17-7.7-12.29-13.79-2.12-6.09-1.74-12.64,1.06-18.44,5.7-11.79,34.16-48.11,47.49-48.12v-1m0,0c-13.98,0-42.76,37.02-48.39,48.68-6.04,12.5-.81,27.53,11.69,33.57,3.53,1.7,7.25,2.51,10.92,2.51,9.34,0,18.31-5.23,22.65-14.2,6.04-12.5,18.4-63.92,5.9-69.96-.84-.4-1.76-.6-2.77-.6h0Z"/><path class="cls-4" d="m291.4,1207.58c-18.37,0-45.36-7.38-53.34-11.24-5.92-2.86-10.38-7.86-12.54-14.08s-1.78-12.9,1.08-18.82c4.09-8.46,12.8-13.92,22.2-13.92,3.72,0,7.32.83,10.7,2.46,13.51,6.53,53.5,38.8,47.85,50.49-1.61,3.34-7.13,5.1-15.95,5.1Z"/><path class="cls-1" d="m248.8,1149.03v1c3.65,0,7.17.81,10.48,2.41,6.11,2.95,19.6,12.58,30.75,22.99,13.07,12.2,19.22,21.98,16.87,26.83-1.52,3.15-6.88,4.82-15.5,4.82-18.3,0-45.18-7.35-53.12-11.19-5.8-2.81-10.17-7.7-12.29-13.79s-1.74-12.64,1.06-18.44c4-8.28,12.54-13.64,21.75-13.64v-1m0,0c-9.34,0-18.31,5.23-22.65,14.2-6.04,12.5-.81,27.53,11.69,33.57,8.59,4.15,35.57,11.29,53.56,11.29,8.19,0,14.51-1.48,16.4-5.39,6.04-12.5-35.59-45.12-48.08-51.16-3.53-1.7-7.25-2.51-10.92-2.51h0Z"/><path class="cls-4" d="m344.37,1191.02c-.94,0-1.8-.18-2.55-.55-11.69-5.65-.4-55.78,6.14-69.29,4.09-8.46,12.8-13.92,22.2-13.92,3.72,0,7.32.83,10.7,2.46,12.23,5.91,17.37,20.67,11.46,32.9-5.73,11.86-34.44,48.4-47.94,48.4Z"/><path class="cls-1" d="m370.16,1106.76v1c3.65,0,7.17.81,10.48,2.41,11.98,5.79,17.02,20.25,11.22,32.23-5.7,11.79-34.16,48.12-47.49,48.12-.87,0-1.65-.17-2.33-.5-4.85-2.34-6.11-13.83-3.45-31.51,2.27-15.08,6.86-31,9.82-37.12,4-8.28,12.54-13.64,21.75-13.64v-1m0,0c-9.34,0-18.31,5.23-22.65,14.2-6.04,12.5-18.4,63.92-5.9,69.96.84.4,1.76.6,2.77.6,13.98,0,42.76-37.02,48.39-48.68,6.04-12.5.81-27.53-11.69-33.57-3.53-1.7-7.25-2.51-10.92-2.51h0Z"/><path class="cls-4" d="m412.38,1277.9c-3.72,0-7.32-.83-10.7-2.46-6.14-2.97-19.69-12.64-30.87-23.07-13.43-12.54-19.46-22.28-16.98-27.42,1.61-3.34,7.13-5.1,15.95-5.1,18.37,0,45.36,7.38,53.34,11.24,5.92,2.86,10.38,7.86,12.54,14.08,2.16,6.21,1.78,12.9-1.08,18.82-4.09,8.46-12.8,13.92-22.2,13.92Z"/><path class="cls-1" d="m369.78,1219.34v1c18.3,0,45.18,7.35,53.12,11.19,5.8,2.81,10.17,7.7,12.29,13.79,2.12,6.09,1.74,12.64-1.06,18.44-4,8.28-12.54,13.64-21.75,13.64-3.65,0-7.18-.81-10.49-2.41-6.11-2.95-19.6-12.58-30.75-22.99-13.07-12.2-19.22-21.98-16.87-26.83,1.52-3.15,6.88-4.82,15.5-4.82v-1m0,0c-8.19,0-14.51,1.48-16.4,5.39-6.04,12.5,35.59,45.12,48.08,51.16,3.53,1.7,7.25,2.51,10.92,2.51,9.34,0,18.31-5.23,22.65-14.2,6.04-12.5.81-27.53-11.69-33.57-8.59-4.15-35.57-11.29-53.56-11.29h0Z"/><path class="cls-4" d="m389.21,1307.48c-.26,0-.51,0-.77-.01-1.34-.03-2.73-.19-4.13-.47-5.51-1.11-10.34-3.97-13.96-8.26-8.26-9.77-27.56-46.3-25.4-60.91.3-2.04,1.02-3.58,2.12-4.57.05-.05.08-.09.12-.11l.11-.08c1.11-.9,2.66-1.36,4.6-1.36.5,0,1.03.03,1.57.09,2.48.25,5.5,1.12,8.98,2.57,16.33,6.8,39.31,25.21,45.55,32.59,2.78,3.3,4.66,7.27,5.42,11.48,1.56,8.66-1.64,17.57-8.35,23.24-4.44,3.74-10.07,5.8-15.85,5.8Z"/><path class="cls-1" d="m351.89,1232.21h0c.48,0,.99.03,1.53.09,2.43.25,5.4,1.1,8.83,2.54,16.26,6.78,39.15,25.1,45.36,32.45,2.73,3.23,4.56,7.12,5.31,11.25,1.53,8.49-1.6,17.21-8.18,22.77-4.35,3.67-9.87,5.68-15.53,5.68-.25,0-.5,0-.76-.01-1.31-.03-2.67-.19-4.04-.46-5.4-1.09-10.13-3.88-13.68-8.09-8.21-9.73-27.43-46.03-25.28-60.51.29-1.92.94-3.36,1.96-4.27l.02-.02.02-.02.04-.04.06-.04h0s.02-.02.02-.02l.04-.03c1.02-.83,2.46-1.25,4.28-1.25m0-1c-1.99,0-3.66.46-4.91,1.47-.03.02-.07.05-.1.08-.05.04-.1.09-.14.13-1.24,1.12-1.96,2.78-2.28,4.87-2.24,15.1,17.67,52.02,25.51,61.3,3.8,4.51,8.87,7.34,14.24,8.42,1.39.28,2.79.45,4.21.48.26,0,.52.01.78.01,5.72,0,11.47-1.95,16.18-5.92,7.12-6.02,10.06-15.14,8.52-23.71-.76-4.18-2.59-8.23-5.53-11.71-6.34-7.5-29.17-25.82-45.74-32.73-3.36-1.4-6.46-2.34-9.11-2.61-.56-.06-1.11-.09-1.63-.09h0Z"/><path class="cls-4" d="m261.36,1296.94c-7.28,0-14.14-3.19-18.83-8.74-8.76-10.38-7.45-25.95,2.93-34.71,8.78-7.41,42.46-25.57,58.43-25.57,3.4,0,5.82.81,7.17,2.42,3.68,4.36.25,15.29-9.64,30.78-8.24,12.89-18.96,25.61-24.17,30.02-4.44,3.75-10.08,5.81-15.88,5.81Z"/><path class="cls-1" d="m303.89,1227.42v1c3.25,0,5.53.75,6.79,2.24,3.48,4.12-.05,15.12-9.68,30.18-8.21,12.85-18.89,25.52-24.08,29.9-4.35,3.67-9.87,5.69-15.56,5.69-7.13,0-13.86-3.12-18.45-8.56-4.16-4.93-6.15-11.18-5.61-17.6.54-6.42,3.55-12.25,8.48-16.41,8.74-7.38,42.24-25.45,58.11-25.45v-1m0,0c-16.35,0-49.96,18.26-58.75,25.69-10.61,8.95-11.94,24.81-2.99,35.42,4.97,5.89,12.07,8.92,19.22,8.92,5.73,0,11.48-1.95,16.2-5.93,10.61-8.95,42.83-50.89,33.88-61.5-1.53-1.82-4.17-2.6-7.55-2.6h0Z"/><path class="cls-4" d="m309.41,1195.41c-14.64,0-47.68-25.32-56.07-35.25-8.76-10.38-7.45-25.95,2.93-34.71,4.44-3.75,10.08-5.81,15.88-5.81,7.28,0,14.14,3.19,18.83,8.74,9.68,11.47,33.07,57.22,23.15,65.6-1.13.95-2.72,1.44-4.72,1.44Z"/><path class="cls-1" d="m272.15,1120.13h0c7.13,0,13.86,3.12,18.45,8.56,4.38,5.19,12.78,19.48,18.72,33.52,6.97,16.47,8.6,27.9,4.49,31.38-1.04.87-2.51,1.32-4.4,1.32-6.36,0-17.15-4.99-30.38-14.04-11.62-7.95-21.71-16.77-25.31-21.04-4.16-4.93-6.15-11.18-5.61-17.6.54-6.42,3.55-12.25,8.48-16.41,4.35-3.67,9.87-5.69,15.56-5.69m0-1c-5.73,0-11.48,1.95-16.2,5.93-10.61,8.95-11.94,24.81-2.99,35.42,7.88,9.34,41.33,35.43,56.45,35.43,2.06,0,3.77-.48,5.04-1.55,10.61-8.95-14.13-55.7-23.09-66.31-4.97-5.89-12.07-8.92-19.22-8.92h0Z"/><path class="cls-4" d="m357.67,1199.46c-3.4,0-5.82-.81-7.17-2.42-8.38-9.92,22.35-51.11,33.82-60.79,4.44-3.75,10.08-5.81,15.88-5.81,7.28,0,14.14,3.19,18.83,8.74,4.25,5.03,6.28,11.41,5.72,17.96s-3.63,12.5-8.65,16.75c-8.78,7.41-42.46,25.57-58.43,25.57Z"/><path class="cls-1" d="m400.2,1130.93h0c7.13,0,13.86,3.12,18.45,8.56,8.58,10.17,7.3,25.42-2.87,34.01-8.74,7.38-42.25,25.45-58.11,25.45-3.25,0-5.53-.75-6.79-2.24-3.48-4.12.05-15.12,9.68-30.18,8.21-12.85,18.89-25.52,24.08-29.9,4.35-3.67,9.87-5.69,15.56-5.69m0-1c-5.73,0-11.48,1.95-16.2,5.93-10.61,8.95-42.83,50.89-33.88,61.5,1.53,1.82,4.17,2.6,7.55,2.6,16.35,0,49.96-18.26,58.75-25.69,10.61-8.95,11.94-24.81,2.99-35.42-4.97-5.89-12.07-8.92-19.22-8.92h0Z"/><path class="cls-4" d="m323.07,1328.57c-.7,0-1.41-.03-2.11-.09-7.53-.64-14.25-4.62-18.43-10.91-3.11-4.65-4.51-10.08-4.04-15.71.9-10.69,9.98-41.51,20.05-55.57,1.73-2.42,3.44-4.26,5.07-5.46,1.56-1.16,3.07-1.75,4.47-1.75.1,0,.19,0,.29,0h.02s.05,0,.05,0h0s.11,0,.11,0c1.84.19,3.63,1.35,5.36,3.48,9.76,12.09,14.7,51.21,13.67,63.42-.36,4.22-1.79,8.28-4.15,11.75-.15.23-.27.4-.4.57-4.63,6.43-12.09,10.26-19.96,10.26Z"/><path class="cls-1" d="m328.08,1239.57c.06,0,.13,0,.19,0l.03.02h.02s.15,0,.15,0h.07c1.66.17,3.33,1.28,4.98,3.29,9.69,12,14.58,50.91,13.56,63.06-.35,4.13-1.75,8.11-4.06,11.51l-.05.07c-.11.16-.22.32-.36.5-4.53,6.28-11.83,10.03-19.55,10.03-.68,0-1.38-.03-2.06-.09-7.38-.63-13.96-4.52-18.06-10.69-3.05-4.55-4.41-9.87-3.95-15.39.89-10.64,9.94-41.32,19.96-55.32,1.7-2.38,3.37-4.18,4.96-5.35,1.47-1.09,2.88-1.65,4.17-1.65m0-1c-1.58,0-3.17.66-4.77,1.85-1.74,1.29-3.48,3.2-5.18,5.57-10.28,14.36-19.27,45.43-20.14,55.82-.49,5.89,1.07,11.48,4.12,16.03,4.09,6.16,10.86,10.46,18.81,11.13.72.06,1.44.09,2.15.09,8.28,0,15.76-4.07,20.36-10.45.15-.19.29-.4.42-.59,2.34-3.45,3.86-7.54,4.23-11.99.99-11.76-3.82-51.44-13.78-63.78-1.74-2.14-3.62-3.45-5.66-3.65-.03,0-.05-.01-.08-.01h0s-.01,0-.02,0h0s-.01,0-.02,0c-.14-.01-.29-.02-.43-.02h0Z"/><path class="cls-4" d="m241.61,1230.76c-1.38,0-2.58-.04-3.57-.13-6.56-.55-12.5-3.63-16.75-8.65-4.25-5.03-6.28-11.41-5.73-17.96,1.07-12.65,11.84-22.56,24.52-22.56.7,0,1.4.03,2.1.09,6.8.57,22.91,4.75,37.08,10.5,17.03,6.91,26.15,13.84,25.67,19.52-1.01,11.95-44.48,19.2-63.33,19.2Z"/><path class="cls-1" d="m240.08,1181.95h0c.68,0,1.37.03,2.06.09,6.76.57,22.81,4.73,36.94,10.46,16.57,6.72,25.81,13.65,25.36,19.02-.43,5.06-9.29,9.94-24.96,13.75-13.48,3.28-29.26,4.99-37.87,4.99-1.37,0-2.55-.04-3.53-.12-13.26-1.12-23.14-12.82-22.02-26.08,1.05-12.4,11.6-22.1,24.02-22.1m0-1c-12.92,0-23.91,9.91-25.02,23.02-1.17,13.83,9.1,25.99,22.93,27.16,1.01.09,2.22.13,3.61.13,17.61,0,62.75-6.84,63.83-19.66,1.17-13.83-49.38-29.39-63.21-30.56-.72-.06-1.43-.09-2.14-.09h0Z"/><path class="cls-4" d="m333.25,1188.03c-.14,0-.29,0-.43-.02-5.68-.48-10.99-10.63-14.94-28.58-3.29-14.94-4.71-31.52-4.13-38.32,1.07-12.65,11.84-22.56,24.52-22.56.7,0,1.4.03,2.1.09,13.53,1.14,23.62,13.08,22.47,26.62-1.22,14.48-16.78,62.77-29.59,62.77Z"/><path class="cls-1" d="m338.27,1099.05h0c.68,0,1.37.03,2.06.09,13.26,1.12,23.14,12.82,22.02,26.08-1.21,14.38-16.52,62.32-29.09,62.32-.13,0-.26,0-.39-.02-5.37-.45-10.65-10.73-14.5-28.19-3.28-14.89-4.69-31.41-4.12-38.17,1.05-12.39,11.6-22.1,24.02-22.1m0-1c-12.92,0-23.91,9.91-25.02,23.02-1.17,13.83,5.7,66.27,19.53,67.44.16.01.32.02.47.02,13.71,0,28.93-49.56,30.08-63.23,1.17-13.83-9.1-25.99-22.93-27.16-.72-.06-1.43-.09-2.14-.09h0Z"/><path class="cls-4" d="m421.23,1246.01c-.7,0-1.4-.03-2.1-.09-6.8-.57-22.91-4.75-37.08-10.5-17.03-6.91-26.15-13.84-25.67-19.52,1.01-11.95,44.48-19.2,63.33-19.2,1.38,0,2.58.04,3.57.13,13.53,1.14,23.62,13.08,22.47,26.62-1.07,12.65-11.84,22.56-24.52,22.56Z"/><path class="cls-1" d="m419.7,1196.2v1s0,0,0,0c1.36,0,2.55.04,3.53.12,13.26,1.12,23.14,12.82,22.02,26.08-1.05,12.4-11.6,22.11-24.02,22.11-.68,0-1.37-.03-2.06-.09-6.76-.57-22.81-4.73-36.94-10.46-16.57-6.72-25.81-13.65-25.36-19.02.43-5.06,9.29-9.94,24.96-13.75,13.48-3.28,29.26-4.99,37.87-4.99v-1m0,0c-17.61,0-62.74,6.84-63.83,19.66-1.17,13.83,49.38,29.39,63.21,30.56.72.06,1.43.09,2.14.09,12.92,0,23.91-9.91,25.02-23.02,1.17-13.83-9.1-25.99-22.93-27.16-1.01-.09-2.22-.13-3.61-.13h0Z"/><path class="cls-4" d="m473.18,1414.6c-17.98,0-35.78-4.72-51.49-13.64,11.27-27.88,33.98-49.52,62.37-59.41,11.1-3.87,22.64-5.83,34.29-5.83,17.98,0,35.78,4.72,51.49,13.64-11.27,27.88-33.98,49.52-62.37,59.41-11.1,3.87-22.64,5.83-34.29,5.83Z"/><path class="cls-1" d="m518.35,1336.23c17.75,0,35.31,4.62,50.86,13.36-11.27,27.55-33.78,48.92-61.91,58.72-11.05,3.85-22.53,5.8-34.12,5.8-17.75,0-35.32-4.62-50.86-13.36,11.27-27.55,33.78-48.92,61.91-58.72,11.05-3.85,22.53-5.8,34.13-5.8h0m0-1c-11.43,0-23.05,1.89-34.45,5.86-29.83,10.39-51.98,32.9-62.83,60.1,15.69,9,33.65,13.92,52.12,13.92,11.43,0,23.05-1.89,34.45-5.86,29.83-10.39,51.98-32.9,62.83-60.1-15.69-9-33.65-13.92-52.12-13.92h0Z"/><line class="cls-2" x1="420.91" y1="1401.23" x2="570.61" y2="1349.1"/><path class="cls-4" d="m291.25,1530.96c-19.02,0-37.85-4.99-54.47-14.44,11.91-29.49,35.92-52.38,65.96-62.84,11.74-4.09,23.94-6.16,36.25-6.16,19.02,0,37.85,4.99,54.47,14.44-11.91,29.49-35.92,52.38-65.96,62.84-11.74,4.09-23.94,6.16-36.25,6.16Z"/><path class="cls-1" d="m339,1448.03c18.79,0,37.38,4.89,53.83,14.16-11.91,29.16-35.74,51.78-65.49,62.15-11.69,4.07-23.83,6.13-36.09,6.13-18.79,0-37.39-4.89-53.84-14.16,11.91-29.16,35.74-51.78,65.49-62.15,11.69-4.07,23.83-6.13,36.09-6.13h0m0-1c-12.08,0-24.37,1.99-36.42,6.19-31.53,10.98-54.94,34.78-66.42,63.53,16.59,9.52,35.57,14.72,55.09,14.72,12.08,0,24.37-1.99,36.42-6.19,31.53-10.98,54.94-34.78,66.42-63.53-16.59-9.52-35.57-14.72-55.09-14.72h0Z"/><line class="cls-2" x1="394.24" y1="1461.69" x2="236" y2="1516.8"/></g><g id="Shoe"><path class="cls-4" d="m-21.8,739.19l63.06-76.63,71.6,58.92c-.21.26-.43.51-.64.77-16.81,20.42-28.57,42.96-33.13,63.45-3.76,16.89-2.25,30.76,4.19,39.96l-105.08-86.48Z"/><path class="cls-1" d="m41.33,663.27l70.82,58.28c-.11.13-.21.26-.32.39-16.86,20.48-28.66,43.09-33.23,63.65-3.45,15.51-2.49,28.5,2.64,37.74l-102.34-84.22,62.42-75.85m-.14-1.41l-63.7,77.4,111.07,91.4c-21.37-17.59-10.61-65.98,24.04-108.09.32-.39.64-.77.96-1.15l-72.38-59.56h0Z"/><path class="cls-4" d="m43.19,913.41l58.6-71.21,27.48,22.61c23.26,19.14,26.61,53.64,7.47,76.9l-23.89,29.03-69.66-57.33Z"/><path class="cls-1" d="m101.86,842.9l27.09,22.3c23.05,18.97,26.37,53.15,7.4,76.19l-23.57,28.64-68.89-56.69,57.97-70.44m-.14-1.41l-59.24,71.98,70.43,57.96,24.2-29.41c19.35-23.51,15.97-58.25-7.54-77.6l-27.86-22.93h0Z"/><path class="cls-4" d="m-108.51,788.56L13.79,639.96l71.6,58.92c-.19.23-.39.47-.58.7-34.83,42.32-45.58,91.12-24.03,108.86l40.64,33.44-58.6,71.21-151.32-124.53Z"/><path class="cls-1" d="m13.86,640.66l70.82,58.28c-.11.13-.21.26-.32.39-16.86,20.48-28.66,43.09-33.23,63.65-4.63,20.8-1.31,37.08,9.33,45.84l40.25,33.12-57.97,70.44-150.55-123.89L13.86,640.66m-.14-1.41l-122.93,149.38,152.09,125.16,59.24-71.98-41.02-33.76c-21.37-17.59-10.61-65.98,24.04-108.09.32-.39.64-.77.96-1.15l-72.38-59.56h0Z"/><rect class="cls-4" x="-10.54" y="742.31" width="15.54" height="286.68" transform="translate(-684.85 320.73) rotate(-50.55)"/><path class="cls-1" d="m-108.44,789.27l220.59,181.54-9.24,11.23-220.59-181.54,9.24-11.23m-.14-1.41l-10.51,12.77,222.14,182.81,10.51-12.77-222.14-182.81h0Z"/><path class="cls-4" d="m61.07,708.11c-1.5,0-2.97-.53-4.14-1.49-1.34-1.11-2.18-2.67-2.35-4.4-.17-1.73.35-3.43,1.45-4.77,1.24-1.51,3.08-2.38,5.04-2.38,1.5,0,2.97.53,4.14,1.49,2.77,2.28,3.17,6.4.89,9.17-1.24,1.51-3.08,2.38-5.04,2.38Z"/><path class="cls-1" d="m61.08,695.58h0c1.39,0,2.74.49,3.82,1.37,1.24,1.02,2.01,2.46,2.17,4.06.16,1.6-.32,3.16-1.34,4.4-1.15,1.39-2.84,2.19-4.65,2.19-1.39,0-2.74-.49-3.82-1.37-2.56-2.11-2.93-5.91-.82-8.47,1.15-1.39,2.84-2.19,4.65-2.19m0-1c-2.03,0-4.03.87-5.42,2.56-2.46,2.99-2.03,7.41.96,9.88,1.31,1.08,2.89,1.6,4.45,1.6,2.03,0,4.03-.87,5.42-2.56,2.46-2.99,2.03-7.41-.96-9.88-1.31-1.08-2.89-1.6-4.45-1.6h0Z"/><path class="cls-4" d="m45.15,727.46c-1.5,0-2.97-.53-4.14-1.48-2.77-2.28-3.17-6.4-.89-9.17,1.24-1.51,3.08-2.38,5.04-2.38,1.5,0,2.97.53,4.14,1.49,1.34,1.11,2.18,2.67,2.35,4.4.17,1.73-.35,3.43-1.45,4.77-1.24,1.51-3.08,2.38-5.04,2.38Z"/><path class="cls-1" d="m45.16,714.93h0c1.39,0,2.74.49,3.82,1.37,1.24,1.02,2.01,2.46,2.17,4.06.16,1.6-.32,3.16-1.34,4.4-1.15,1.39-2.84,2.19-4.65,2.19-1.39,0-2.74-.49-3.82-1.37-1.24-1.02-2.01-2.46-2.17-4.06-.16-1.6.32-3.16,1.34-4.4,1.15-1.39,2.84-2.19,4.65-2.19m0-1c-2.03,0-4.03.87-5.42,2.56-2.46,2.99-2.03,7.41.96,9.88,1.31,1.08,2.89,1.6,4.45,1.6,2.03,0,4.03-.87,5.42-2.56,2.46-2.99,2.03-7.41-.96-9.88-1.31-1.08-2.89-1.6-4.45-1.6h0Z"/><path class="cls-4" d="m34.64,751.27c-1.5,0-2.97-.53-4.14-1.48-2.77-2.28-3.17-6.4-.89-9.17,1.24-1.51,3.08-2.38,5.04-2.38,1.5,0,2.97.53,4.14,1.49,2.77,2.28,3.17,6.4.89,9.17-1.24,1.51-3.08,2.38-5.04,2.38Z"/><path class="cls-1" d="m34.65,738.73h0c1.39,0,2.74.49,3.82,1.37,1.24,1.02,2.01,2.46,2.17,4.06.16,1.6-.32,3.16-1.34,4.4-1.15,1.39-2.84,2.19-4.65,2.19-1.39,0-2.74-.49-3.82-1.37-1.24-1.02-2.01-2.46-2.17-4.06-.16-1.6.32-3.16,1.34-4.4,1.15-1.39,2.84-2.19,4.65-2.19m0-1c-2.03,0-4.03.87-5.42,2.56-2.46,2.99-2.03,7.41.96,9.88,1.31,1.08,2.89,1.6,4.45,1.6,2.03,0,4.03-.87,5.42-2.56,2.46-2.99,2.03-7.41-.96-9.88-1.31-1.08-2.89-1.6-4.45-1.6h0Z"/><path class="cls-4" d="m34.22,776.23c-1.5,0-2.97-.53-4.14-1.49-1.34-1.11-2.18-2.67-2.35-4.4-.17-1.73.35-3.43,1.45-4.77,1.24-1.51,3.08-2.38,5.04-2.38,1.5,0,2.97.53,4.14,1.48,2.77,2.28,3.17,6.4.89,9.17-1.24,1.51-3.08,2.38-5.04,2.38Z"/><path class="cls-1" d="m34.23,763.7h0c1.39,0,2.74.49,3.82,1.37,2.56,2.11,2.93,5.91.82,8.47-1.15,1.39-2.84,2.19-4.65,2.19-1.39,0-2.74-.49-3.82-1.37-1.24-1.02-2.01-2.46-2.17-4.06-.16-1.6.32-3.16,1.34-4.4,1.15-1.39,2.84-2.19,4.65-2.19m0-1c-2.03,0-4.03.87-5.42,2.56-2.46,2.99-2.03,7.41.96,9.88,1.31,1.08,2.89,1.6,4.45,1.6,2.03,0,4.03-.87,5.42-2.56,2.46-2.99,2.03-7.41-.96-9.88-1.31-1.08-2.89-1.6-4.45-1.6h0Z"/><path class="cls-4" d="m35,798.95c-1.5,0-2.97-.53-4.14-1.49-1.34-1.11-2.18-2.67-2.35-4.4-.17-1.73.35-3.43,1.45-4.77,1.24-1.51,3.08-2.38,5.04-2.38,1.5,0,2.97.53,4.14,1.48,1.34,1.11,2.18,2.67,2.35,4.4.17,1.73-.35,3.43-1.45,4.77-1.24,1.51-3.08,2.38-5.04,2.38Z"/><path class="cls-1" d="m35.01,786.41h0c1.39,0,2.74.49,3.82,1.37,1.24,1.02,2.01,2.46,2.17,4.06.16,1.6-.32,3.16-1.34,4.4-1.15,1.39-2.84,2.19-4.65,2.19-1.39,0-2.74-.49-3.82-1.37-1.24-1.02-2.01-2.46-2.17-4.06-.16-1.6.32-3.16,1.34-4.4,1.15-1.39,2.84-2.19,4.65-2.19m0-1c-2.03,0-4.03.87-5.42,2.56-2.46,2.99-2.03,7.41.96,9.88,1.31,1.08,2.89,1.6,4.45,1.6,2.03,0,4.03-.87,5.42-2.56,2.46-2.99,2.03-7.41-.96-9.88-1.31-1.08-2.89-1.6-4.45-1.6h0Z"/><line class="cls-2" x1="61.04" y1="701.24" x2="102.84" y2="735.64"/><line class="cls-2" x1="92.1" y1="753.41" x2="61.04" y2="701.24"/><line class="cls-2" x1="45.19" y1="721.3" x2="92.1" y2="753.41"/><line class="cls-2" x1="87.92" y1="761.65" x2="45.19" y2="721.3"/><line class="cls-2" x1="34.29" y1="744.79" x2="87.92" y2="761.65"/><line class="cls-2" x1="82.23" y1="776.45" x2="34.29" y2="744.79"/><line class="cls-2" x1="34.26" y1="770.07" x2="82.23" y2="776.45"/><line class="cls-2" x1="77.8" y1="796.82" x2="34.26" y2="770.07"/><line class="cls-2" x1="34.97" y1="792.08" x2="77.8" y2="796.82"/><line class="cls-2" x1="80.7" y1="819.32" x2="34.97" y2="792.08"/><rect class="cls-4" x="-13.6" y="750.79" width="7" height="287" transform="translate(-694.21 318.22) rotate(-50.55)"/><path class="cls-1" d="m-118.62,801.11l220.83,181.74-3.81,4.63-220.83-181.74,3.81-4.63m-.14-1.41l-5.08,6.18,222.38,183.01,5.08-6.18-222.38-183.01h0Z"/></g><g id="Heartcloud"><path class="cls-4" d="m-61.93,1239.47c-.52,0-1.04-.01-1.56-.04-8.54-.41-16.4-4.12-22.15-10.45-5.75-6.33-8.68-14.51-8.27-23.05.72-14.91,11.9-27.53,26.59-30.01l.46-.08-.05-.47c-.23-2.18-.29-4.43-.18-6.7,1.14-23.75,20.65-42.36,44.4-42.36.51,0,1.02,0,1.53.03l.55.02-.03-.55c-.11-2.12-.12-4.3-.02-6.47,1.62-33.63,29.24-59.97,62.88-59.97,1.02,0,2.06.02,3.08.07,16.81.81,32.3,8.12,43.61,20.57,11.31,12.46,17.1,28.58,16.29,45.38-.29,6.07-1.45,12.04-3.44,17.75l-.08.24.14.21c3.63,5.27,6.02,11.38,6.91,17.69l.05.37.37.05c9.81,1.35,16.84,9.84,16.36,19.73-.49,10.14-8.82,18.09-18.96,18.09-.31,0-.62,0-.93-.02-3.04-.15-6.02-1.02-8.61-2.54l-.33-.19-.27.26c-7.76,7.48-17.97,11.61-28.75,11.61-.67,0-1.35-.02-2.03-.05-6.11-.29-11.91-1.87-17.26-4.68l-.4-.21-.25.38c-7.7,11.86-20.71,18.94-34.81,18.94-.67,0-1.35-.02-2.03-.05-8.57-.41-16.67-3.4-23.42-8.65l-.19-.15-.23.05c-3.13.71-6.38,1.07-9.64,1.07-.72,0-1.45-.02-2.18-.05-1.81-.09-3.66-.29-5.51-.6l-.46-.08-.11.45c-3.48,14.38-16.25,24.43-31.07,24.43Z"/><path class="cls-1" d="m42.21,1058.88v1c1.01,0,2.04.02,3.05.07,16.68.8,32.04,8.05,43.26,20.41s16.96,28.35,16.16,45.02c-.29,6.02-1.44,11.94-3.41,17.6l-.17.48.29.42c3.59,5.2,5.95,11.25,6.83,17.48l.11.75.75.1c9.55,1.32,16.4,9.58,15.93,19.21-.48,9.88-8.59,17.61-18.46,17.61-.3,0-.6,0-.91-.02-2.96-.14-5.86-1-8.38-2.47l-.65-.38-.55.53c-7.67,7.39-17.76,11.47-28.4,11.47-.67,0-1.34-.02-2.01-.05-6.03-.29-11.77-1.85-17.06-4.62l-.81-.42-.5.76c-7.61,11.72-20.46,18.71-34.39,18.71-.66,0-1.34-.02-2-.05-8.47-.41-16.47-3.36-23.14-8.54l-.37-.29-.46.1c-3.1.7-6.31,1.05-9.54,1.05-.71,0-1.44-.02-2.16-.05-1.79-.09-3.62-.29-5.45-.6l-.92-.16-.22.91c-3.42,14.16-16,24.05-30.58,24.05-.51,0-1.03-.01-1.54-.04-8.4-.4-16.15-4.06-21.8-10.29-5.66-6.23-8.55-14.29-8.14-22.69.71-14.68,11.71-27.1,26.17-29.54l.93-.16-.1-.93c-.23-2.15-.29-4.38-.18-6.62,1.13-23.48,20.41-41.88,43.9-41.88.5,0,1.01,0,1.51.03l1.09.04-.06-1.09c-.11-2.1-.12-4.26-.02-6.42,1.61-33.36,29-59.49,62.38-59.5v-1m0,0c-33.66,0-61.74,26.46-63.38,60.45-.11,2.2-.1,4.37.02,6.52-.52-.02-1.03-.03-1.54-.03-23.85,0-43.74,18.75-44.9,42.83-.11,2.3-.05,4.56.18,6.78-14.73,2.48-26.26,14.94-27.01,30.48-.86,17.93,12.97,33.16,30.9,34.02.53.03,1.06.04,1.59.04,15.14,0,28.08-10.47,31.55-24.81,1.82.31,3.68.52,5.57.61.74.04,1.47.05,2.21.05,3.34,0,6.61-.37,9.76-1.08,6.58,5.11,14.75,8.32,23.71,8.75.69.03,1.37.05,2.05.05,14.65,0,27.71-7.58,35.23-19.17,5.24,2.76,11.16,4.43,17.47,4.74.69.03,1.37.05,2.06.05,11.23,0,21.52-4.45,29.09-11.75,2.61,1.53,5.62,2.45,8.83,2.61.32.02.64.02.95.02,10.34,0,18.96-8.13,19.46-18.56.49-10.17-6.9-18.88-16.8-20.25-.93-6.56-3.38-12.66-7-17.91,1.96-5.63,3.16-11.63,3.46-17.88,1.69-35.03-25.34-64.79-60.37-66.48-1.04-.05-2.07-.07-3.1-.07h0Z"/><path class="cls-4" d="m-12.51,1171.97c-6.25-13.88-.04-30.24,13.84-36.49,3.6-1.62,7.4-2.44,11.31-2.44,3.35,0,6.65.6,9.8,1.8,6.89,2.61,12.35,7.75,15.38,14.47l8.58,19.06,18.88-8.5c3.59-1.62,7.4-2.44,11.31-2.44,10.85,0,20.73,6.39,25.18,16.27,3.03,6.72,3.25,14.22.64,21.11-2.61,6.89-7.75,12.35-14.48,15.38l-69.21,31.15-31.24-69.39Z"/><path class="cls-1" d="m12.64,1133.54c3.29,0,6.53.59,9.62,1.77,6.77,2.57,12.13,7.61,15.1,14.21l8.37,18.61.41.91.91-.41,18.43-8.3c3.53-1.59,7.27-2.39,11.11-2.39,10.65,0,20.35,6.27,24.72,15.98,2.97,6.6,3.19,13.96.63,20.73-2.57,6.77-7.61,12.13-14.21,15.1l-68.75,30.95-22.65-50.32-8.38-18.61c-6.13-13.62-.04-29.7,13.59-35.83,3.53-1.59,7.27-2.39,11.11-2.39m0-1c-3.86,0-7.77.8-11.52,2.48-14.15,6.37-20.46,23-14.09,37.15l8.38,18.61,22.98,51.06.08.18,69.66-31.36c7.07-3.18,12.19-8.94,14.74-15.66,2.55-6.72,2.53-14.42-.65-21.49-4.68-10.41-14.92-16.57-25.64-16.57-3.85,0-7.77.8-11.52,2.48l-18.43,8.3-8.37-18.61c-3.19-7.07-8.93-12.19-15.66-14.74-3.16-1.2-6.54-1.83-9.97-1.83h0Z"/><path class="cls-4" d="m10.47,1060.54c-3.3-7.32-.02-15.96,7.3-19.25,1.9-.85,3.91-1.29,5.97-1.29,1.77,0,3.51.32,5.17.95,3.64,1.38,6.52,4.09,8.12,7.64l4.69,10.43,10.33-4.65c1.9-.85,3.91-1.29,5.97-1.29,5.72,0,10.94,3.37,13.29,8.59,1.6,3.55,1.72,7.5.34,11.14-1.38,3.64-4.09,6.52-7.64,8.11l-36.89,16.61-16.65-36.99Z"/><path class="cls-1" d="m23.74,1040.5c1.71,0,3.39.31,4.99.92,3.51,1.33,6.29,3.95,7.84,7.38l4.49,9.97.41.91.91-.41,9.88-4.45c1.83-.82,3.77-1.24,5.76-1.24,5.53,0,10.56,3.26,12.83,8.29,1.54,3.43,1.66,7.25.33,10.76-1.33,3.51-3.95,6.29-7.38,7.84l-36.43,16.4-11.95-26.56-4.49-9.97c-3.18-7.07-.02-15.41,7.05-18.59,1.83-.82,3.77-1.24,5.76-1.24m0-1c-2.07,0-4.17.43-6.17,1.33-7.58,3.41-10.97,12.33-7.55,19.92l4.49,9.97,12.32,27.37.04.1,37.35-16.81c3.79-1.71,6.53-4.79,7.9-8.39,1.37-3.61,1.36-7.73-.35-11.52-2.51-5.58-8-8.88-13.74-8.88-2.07,0-4.17.43-6.17,1.33l-9.88,4.45-4.49-9.97c-1.71-3.79-4.79-6.53-8.39-7.9-1.7-.64-3.51-.98-5.35-.98h0Z"/><path class="cls-4" d="m87.9,1258.85c-1.57,0-3.17-.11-4.74-.32-13.58-1.8-25.05-11.4-29.24-24.43l-.22-.68-.56.44c-3.26,2.54-7.31,3.93-11.42,3.93-.82,0-1.66-.05-2.48-.17-4.93-.65-9.31-3.19-12.33-7.14-3.02-3.95-4.33-8.84-3.67-13.77.44-3.31,1.76-6.45,3.82-9.06l.38-.49-.56-.27c-5.72-2.77-9-8.87-8.16-15.18.97-7.29,7.24-12.79,14.59-12.79.65,0,1.31.04,1.96.13,8.05,1.07,13.73,8.49,12.66,16.55-.23,1.74-.76,3.39-1.57,4.92l-.29.55.6.17c3.4.94,6.46,2.83,8.83,5.45l.48.53.33-.63c6.19-11.74,18.26-19.03,31.5-19.03,1.57,0,3.17.11,4.74.32,4.46.59,8.71,2,12.62,4.17l.54.3.18-.58c3.48-11.02,13.57-18.43,25.13-18.43,1.17,0,2.35.08,3.51.23,6.98.93,13.19,4.52,17.47,10.12,4.28,5.6,6.13,12.53,5.2,19.51-1.74,13.06-12.97,22.91-26.12,22.91-1.17,0-2.35-.08-3.51-.23-1.21-.16-2.4-.4-3.53-.72l-.59-.17-.04.62c-.04.72-.12,1.5-.23,2.3-2.35,17.64-17.52,30.95-35.29,30.95Z"/><path class="cls-1" d="m131.02,1172.83v1c1.14,0,2.3.08,3.45.23,14.15,1.88,24.13,14.92,22.25,29.07-1.7,12.81-12.72,22.47-25.62,22.47-1.14,0-2.3-.08-3.44-.23-1.18-.16-2.35-.39-3.46-.7l-1.19-.33-.08,1.23c-.04.72-.12,1.48-.22,2.26-2.31,17.4-17.27,30.52-34.79,30.52-1.55,0-3.13-.1-4.68-.31-13.38-1.78-24.7-11.24-28.83-24.09l-.44-1.36-1.13.88c-3.17,2.47-7.12,3.83-11.11,3.83-.8,0-1.61-.05-2.41-.16-9.9-1.32-16.89-10.44-15.57-20.35.43-3.22,1.71-6.27,3.72-8.82l.77-.98-1.12-.54c-5.52-2.68-8.69-8.57-7.88-14.67.94-7.05,6.99-12.36,14.09-12.36.63,0,1.27.04,1.89.13,3.77.5,7.12,2.44,9.43,5.46,2.31,3.02,3.31,6.76,2.81,10.53-.22,1.68-.73,3.28-1.52,4.76l-.58,1.1,1.2.33c3.31.91,6.28,2.75,8.59,5.31l.96,1.06.67-1.27c6.1-11.57,18-18.77,31.06-18.77,1.55,0,3.12.1,4.67.31,4.4.59,8.59,1.97,12.44,4.12l1.07.6.37-1.17c3.41-10.81,13.32-18.08,24.65-18.08v-1m0,0c-11.72,0-22.1,7.67-25.6,18.78-3.86-2.15-8.17-3.62-12.8-4.23-1.62-.21-3.22-.32-4.81-.32-13.57,0-25.8,7.65-31.94,19.3-2.37-2.63-5.49-4.61-9.07-5.6.82-1.55,1.38-3.26,1.62-5.09,1.11-8.34-4.76-16-13.09-17.11-.68-.09-1.36-.13-2.03-.13-7.52,0-14.06,5.57-15.08,13.23-.89,6.67,2.69,12.92,8.44,15.7-2.05,2.61-3.46,5.78-3.93,9.31-1.39,10.46,5.97,20.08,16.43,21.47.86.11,1.71.17,2.55.17,4.36,0,8.45-1.49,11.73-4.04,4.13,12.87,15.36,22.88,29.65,24.78,1.62.21,3.22.32,4.81.32,17.84,0,33.37-13.22,35.78-31.38.1-.78.18-1.56.23-2.33,1.16.32,2.37.57,3.6.73,1.2.16,2.39.24,3.58.24,13.27,0,24.82-9.83,26.62-23.34,1.96-14.72-8.39-28.24-23.11-30.19-1.2-.16-2.4-.24-3.58-.24h0Z"/></g><g id="Lock"><rect class="cls-4" x="18.97" y="154.38" width="101" height="71" transform="translate(-81.18 55.03) rotate(-28.07)"/><path class="cls-1" d="m97.12,135.47l32.94,61.76-88.24,47.06-32.94-61.76,88.24-47.06m.41-1.35L7.53,182.12l33.88,63.53,90-48-33.88-63.53h0Z"/><rect class="cls-4" x="113.44" y="128.26" width="10" height="71" transform="translate(-63.14 75.01) rotate(-28.08)"/><path class="cls-1" d="m105.94,130.76l32.94,61.76-7.94,4.24-32.94-61.76,7.94-4.24m.41-1.35l-9.71,5.18,33.88,63.53,9.71-5.18-33.88-63.53h0Z"/><path class="cls-4" d="m63.47,195.2l-.32-.03c-4.47-.47-8.4-3.12-10.51-7.07-1.7-3.18-2.05-6.83-1-10.28,1.05-3.45,3.38-6.29,6.56-7.98.86-.46,1.77-.83,2.7-1.09,1.18-.33,2.4-.5,3.64-.5,5.01,0,9.58,2.74,11.93,7.15,2.11,3.96,2.12,8.69.02,12.67l-.15.28,13.84,18.27-19.26,10.27-7.46-21.67Z"/><path class="cls-1" d="m64.54,167.73v1c4.82,0,9.22,2.64,11.49,6.88,2.03,3.81,2.04,8.37.02,12.2l-.3.56.38.51,13.3,17.55-18.22,9.72-7.17-20.82-.21-.6-.63-.07c-4.3-.46-8.08-3-10.12-6.81-1.63-3.06-1.98-6.58-.97-9.9,1.01-3.32,3.26-6.05,6.32-7.69.83-.44,1.7-.8,2.6-1.05,1.14-.32,2.32-.48,3.5-.48v-1m0,0c-1.26,0-2.53.17-3.77.52-.95.27-1.89.64-2.8,1.13-6.82,3.64-9.4,12.12-5.76,18.94,2.27,4.25,6.43,6.86,10.89,7.34l7.55,21.93,20.29-10.82-14.01-18.48c2.1-3.97,2.24-8.88-.02-13.13-2.52-4.73-7.36-7.41-12.37-7.41h0Z"/><path class="cls-1" d="m64.54,167.73v1c4.82,0,9.22,2.64,11.49,6.88,2.03,3.81,2.04,8.37.02,12.2l-.3.56.38.51,13.3,17.55-12.93,6.9-7.17-20.82-.21-.6-.63-.07c-4.3-.46-8.08-3-10.12-6.81-2.82-5.28-1.61-11.92,2.87-15.87,1.07-.28,2.18-.42,3.29-.42v-1m0,0c-1.26,0-2.53.17-3.77.52-4.9,4.18-6.42,11.34-3.27,17.25,2.27,4.25,6.43,6.86,10.89,7.34l7.55,21.93,15-8-14.01-18.48c2.1-3.97,2.24-8.88-.02-13.13-2.52-4.73-7.36-7.41-12.37-7.41h0Z"/><path class="cls-4" d="m15.81,147.71c-8.31-15.59-2.61-34.92,12.72-43.09,4.47-2.39,9.52-3.65,14.58-3.65,11.83,0,22.67,6.55,28.29,17.09l12.69,23.79-7.94,4.24-12.94-24.27c-2.83-5.31-7.55-9.19-13.3-10.94-2.13-.65-4.34-.98-6.56-.98-3.66,0-7.32.92-10.58,2.65-10.95,5.84-15.1,19.49-9.26,30.44l12.94,24.26-7.94,4.24-12.69-23.79Z"/><path class="cls-1" d="m43.11,100.47v1h0c11.64,0,22.31,6.45,27.85,16.83l12.45,23.35-7.06,3.76-12.71-23.82c-2.89-5.42-7.72-9.4-13.6-11.18-2.18-.66-4.44-1-6.71-1-3.75,0-7.48.94-10.81,2.71-11.19,5.97-15.44,19.93-9.47,31.12l12.71,23.82-7.06,3.76-12.45-23.35c-8.18-15.35-2.57-34.37,12.51-42.42,4.4-2.35,9.36-3.59,14.34-3.59v-1m0,0c-5.02,0-10.1,1.19-14.81,3.71-15.57,8.31-21.36,27.94-12.92,43.77l12.92,24.23,8.82-4.71-13.18-24.71c-5.72-10.72-1.66-24.05,9.06-29.76,3.3-1.76,6.85-2.6,10.34-2.6,2.18,0,4.35.33,6.42.96,5.38,1.64,10.14,5.33,13,10.7l13.18,24.71,8.82-4.71-12.92-24.23c-5.89-11.04-17.16-17.36-28.73-17.36h0Z"/></g><g id="Vinyl"><path class="cls-4" d="m23,1620c-42.47,0-82.4-16.54-112.43-46.57-10.55-10.55-19.54-22.46-26.71-35.39-18.89-34.08-24.56-73.87-15.97-112.05,6.58-29.3,21.34-56.08,42.68-77.42,30.03-30.03,69.96-46.57,112.43-46.57s82.4,16.54,112.43,46.57c12.72,12.72,23.09,27.31,30.83,43.36,13.77,28.57,18.65,60.33,14.1,91.84-4.92,34.17-20.46,65.18-44.94,89.65-30.03,30.03-69.96,46.57-112.43,46.57Zm0-243.96c-22.73,0-44.08,8.83-60.1,24.85-13.72,13.72-22.13,31.17-24.31,50.47-1.62,14.33.41,28.89,5.87,42.13,4.25,10.34,10.46,19.63,18.44,27.61,16.03,16.03,37.37,24.85,60.1,24.85,22.73,0,44.08-8.83,60.1-24.85,12.41-12.42,20.57-28.1,23.57-45.37,3.16-18.04.37-36.92-7.86-53.15-4.02-7.99-9.31-15.29-15.71-21.69-16.03-16.03-37.37-24.85-60.1-24.85Z"/><path class="cls-1" d="m23,1302.5c42.34,0,82.14,16.49,112.08,46.42,12.68,12.68,23.02,27.22,30.74,43.23,13.73,28.48,18.59,60.14,14.06,91.55-4.9,34.07-20.39,64.97-44.8,89.37-29.94,29.94-69.74,46.42-112.08,46.42s-82.14-16.49-112.08-46.42c-10.52-10.52-19.48-22.39-26.62-35.28-18.83-33.97-24.49-73.64-15.92-111.7,6.56-29.21,21.27-55.9,42.55-77.17,29.94-29.94,69.74-46.42,112.08-46.42m0,243.96c22.86,0,44.34-8.88,60.46-25,12.49-12.49,20.69-28.27,23.71-45.63,3.18-18.15.37-37.14-7.91-53.46-4.05-8.04-9.36-15.38-15.81-21.82-16.12-16.12-37.59-25-60.46-25-22.87,0-44.34,8.88-60.46,25-13.8,13.8-22.26,31.36-24.45,50.76-1.63,14.41.41,29.06,5.9,42.37,4.28,10.4,10.52,19.75,18.55,27.78,16.12,16.12,37.59,25,60.46,25m0-244.96c-40.82,0-81.64,15.57-112.78,46.72-22.15,22.15-36.42,49.19-42.82,77.66-8.48,37.68-3.13,77.85,16.02,112.4,7.06,12.73,15.99,24.7,26.79,35.5,31.14,31.14,71.97,46.72,112.78,46.72s81.64-15.57,112.78-46.72c25.31-25.31,40.34-57.03,45.08-89.94,4.48-31.1-.24-63.27-14.15-92.13-7.58-15.73-17.89-30.46-30.93-43.5-31.14-31.14-71.96-46.72-112.78-46.72h0Zm0,243.96c-21.64,0-43.28-8.24-59.75-24.71-8.1-8.1-14.22-17.46-18.33-27.45-5.49-13.31-7.43-27.77-5.83-41.88,2.07-18.35,10.13-36.13,24.16-50.17,16.47-16.47,38.11-24.71,59.75-24.71,21.64,0,43.28,8.23,59.75,24.71,6.49,6.49,11.7,13.78,15.62,21.56,8.33,16.43,10.93,35.04,7.81,52.84-2.88,16.53-10.69,32.36-23.43,45.1-16.47,16.47-38.11,24.71-59.75,24.71h0Z"/><path class="cls-4" d="m23,1519.97c-15.78,0-30.59-6.13-41.72-17.25-2.58-2.58-4.93-5.41-6.98-8.41-10.15-14.81-12.97-33.92-7.54-51.14,2.82-8.96,7.84-17.22,14.51-23.9,11.13-11.13,25.94-17.25,41.72-17.25s30.59,6.13,41.72,17.25c4.76,4.76,8.61,10.21,11.47,16.2,5.42,11.29,7.09,24.33,4.71,36.71-2.22,11.6-7.81,22.16-16.18,30.53-11.13,11.13-25.94,17.25-41.72,17.25Z"/><path class="cls-1" d="m23,1402.53c15.64,0,30.33,6.08,41.37,17.11,4.71,4.71,8.54,10.12,11.37,16.06,5.37,11.19,7.03,24.12,4.67,36.4-2.2,11.5-7.74,21.97-16.04,30.27-11.03,11.03-25.72,17.11-41.37,17.11s-30.33-6.08-41.37-17.11c-2.56-2.56-4.89-5.36-6.92-8.34-10.06-14.68-12.86-33.64-7.47-50.7,2.8-8.89,7.78-17.08,14.39-23.69,11.03-11.03,25.72-17.11,41.37-17.11m0-1c-15.24,0-30.47,5.8-42.07,17.4-6.98,6.98-11.86,15.28-14.64,24.1-5.41,17.15-2.88,36.28,7.6,51.57,2.04,2.99,4.38,5.83,7.04,8.48,11.6,11.6,26.84,17.4,42.07,17.4s30.47-5.8,42.07-17.4c8.72-8.72,14.16-19.49,16.32-30.79,2.38-12.41.81-25.44-4.75-37.02-2.82-5.92-6.68-11.45-11.57-16.33-11.6-11.6-26.84-17.4-42.07-17.4h0Z"/><path class="cls-4" d="m23,1544.96c-22.46,0-43.56-8.72-59.4-24.56-7.89-7.89-14.02-17.07-18.22-27.29-5.4-13.08-7.4-27.48-5.8-41.63,2.15-19.07,10.46-36.31,24.02-49.87,15.84-15.84,36.93-24.56,59.4-24.56s43.56,8.72,59.4,24.56c6.33,6.33,11.55,13.54,15.53,21.43,8.13,16.04,10.89,34.7,7.77,52.53-2.97,17.06-11.03,32.56-23.29,44.83-15.84,15.84-36.93,24.56-59.4,24.56Zm0-143.93c-16.04,0-31.11,6.23-42.43,17.55-6.78,6.78-11.89,15.19-14.76,24.3-5.52,17.5-2.66,36.94,7.67,52,2.08,3.05,4.47,5.92,7.09,8.55,11.31,11.32,26.38,17.55,42.43,17.55s31.11-6.23,42.43-17.55c8.51-8.51,14.2-19.25,16.46-31.05,2.42-12.59.72-25.85-4.79-37.33-2.9-6.09-6.83-11.63-11.67-16.47-11.31-11.32-26.38-17.55-42.43-17.55Z"/><path class="cls-1" d="m23,1377.54c22.33,0,43.3,8.67,59.04,24.42,6.29,6.29,11.48,13.46,15.44,21.3,8.08,15.95,10.83,34.49,7.72,52.22-2.95,16.96-10.96,32.37-23.16,44.56-15.74,15.74-36.71,24.42-59.04,24.42s-43.3-8.67-59.04-24.42c-7.84-7.84-13.93-16.97-18.11-27.12-5.36-13-7.36-27.31-5.76-41.39,2.14-18.95,10.4-36.09,23.88-49.57,15.74-15.74,36.71-24.42,59.04-24.42m0,143.93c16.18,0,31.37-6.28,42.78-17.69,8.58-8.58,14.32-19.41,16.6-31.31,2.44-12.7.72-26.07-4.83-37.64-2.93-6.15-6.89-11.73-11.76-16.61-11.41-11.41-26.6-17.69-42.78-17.69s-31.37,6.28-42.78,17.69c-6.84,6.84-11.99,15.31-14.88,24.5-5.57,17.65-2.68,37.25,7.73,52.43,2.1,3.07,4.51,5.97,7.15,8.62,11.41,11.41,26.6,17.69,42.78,17.69m0-144.93c-21.64,0-43.28,8.24-59.75,24.71-14.04,14.04-22.09,31.82-24.16,50.17-1.6,14.11.34,28.57,5.83,41.88,4.11,9.99,10.22,19.35,18.33,27.45,16.47,16.47,38.11,24.71,59.75,24.71s43.28-8.23,59.75-24.71c12.74-12.74,20.56-28.57,23.43-45.1,3.12-17.8.52-36.41-7.81-52.84-3.92-7.78-9.13-15.07-15.62-21.56-16.47-16.47-38.11-24.71-59.75-24.71h0Zm0,143.93c-15.24,0-30.47-5.8-42.07-17.4-2.65-2.65-4.99-5.49-7.04-8.48-10.48-15.29-13.01-34.42-7.6-51.57,2.78-8.82,7.66-17.12,14.64-24.1,11.6-11.6,26.84-17.4,42.07-17.4s30.47,5.8,42.07,17.4c4.89,4.89,8.75,10.42,11.57,16.33,5.56,11.58,7.13,24.61,4.75,37.02-2.16,11.29-7.6,22.07-16.32,30.79-11.6,11.6-26.84,17.4-42.07,17.4h0Z"/><path class="cls-4" d="m152.44,1497.49c-3.01,0-5.49-4.71-8.37-10.15-4.21-7.98-9.46-17.9-19.36-19.16-.71-.09-1.47-.14-2.27-.14-5.45,0-10.97,2-14.77,5.36-.25.22-.49.45-.73.68,2.51-16.22.24-33.03-6.43-47.91,1.85,2.05,3.59,3.46,5.28,3.46.36,0,.72-.06,1.05-.19,3.94-1.5,4.09-10.9,4.25-20.86.15-9.16.31-18.63,3.57-20.04.25-.11.53-.17.81-.17,3.38,0,8.29,7.51,13.49,15.46,6.81,10.41,14.53,22.21,21.96,22.21.61,0,1.22-.08,1.81-.24,7.71-2.08,10.89-17.12,13.69-30.39.15-.72.31-1.44.46-2.16,12.99,27.58,17.73,58.07,13.76,88.4-3.8-11.13-6.86-15.92-10.1-15.92-.18,0-.37.02-.55.05-3.67.66-5.84,7.69-8.13,15.14-2.28,7.42-4.87,15.83-8.92,16.52-.18.03-.35.05-.52.05Z"/><path class="cls-1" d="m115.49,1388.86c3.11,0,8.17,7.75,13.07,15.24,6.88,10.52,14.67,22.44,22.37,22.44.66,0,1.31-.09,1.94-.26,8.01-2.16,11.22-17.36,14.05-30.77.05-.23.1-.46.15-.69,12.17,26.49,16.76,55.61,13.35,84.65-3.6-10.05-6.55-14.24-9.86-14.24-.21,0-.43.02-.64.06-3.97.71-6.08,7.56-8.52,15.48-2.24,7.28-4.78,15.53-8.52,16.17-.15.03-.29.04-.44.04-2.71,0-5.13-4.58-7.93-9.89-4.27-8.08-9.58-18.13-19.74-19.42-.73-.09-1.52-.14-2.33-.14-5.42,0-10.92,1.95-14.79,5.22,2.07-15.02.09-30.48-5.64-44.41,1.28,1.11,2.52,1.77,3.8,1.77.42,0,.84-.08,1.23-.23,4.25-1.62,4.4-10.75,4.57-21.31.13-8.16.3-18.31,3.27-19.59.19-.08.39-.12.61-.12m0-1c-.35,0-.68.07-1.01.21-7.15,3.08-.59,38.13-7.81,40.88-.29.11-.58.16-.88.16-2.24,0-4.75-2.95-7.43-6.31,8.33,16.43,10.93,35.04,7.81,52.84.52-.64,1.12-1.27,1.82-1.88,4.3-3.8,10.07-5.23,14.43-5.23.79,0,1.53.05,2.2.13,16.56,2.1,19.87,29.32,27.8,29.32.2,0,.4-.02.61-.05,8.34-1.42,10.01-30.4,17.05-31.66.16-.03.31-.04.46-.04,3.69,0,7.07,7.77,10.3,17.61,4.48-31.1-.24-63.27-14.15-92.13-2.98,13.78-5.99,31.42-14.1,33.6-.56.15-1.11.22-1.68.22-12.88,0-27.23-37.68-35.45-37.68h0Z"/><path class="cls-4" d="m23,1470.5c-2.54,0-4.92-.99-6.72-2.78-3.7-3.7-3.7-9.73,0-13.44,1.79-1.79,4.18-2.78,6.72-2.78s4.92.99,6.72,2.78c3.7,3.7,3.7,9.73,0,13.44-1.79,1.79-4.18,2.78-6.72,2.78Z"/><path class="cls-1" d="m23,1452c2.4,0,4.66.94,6.36,2.64,3.51,3.51,3.51,9.22,0,12.73-1.7,1.7-3.96,2.64-6.36,2.64s-4.66-.94-6.36-2.64c-3.51-3.51-3.51-9.22,0-12.73,1.7-1.7,3.96-2.64,6.36-2.64m0-1c-2.56,0-5.12.98-7.07,2.93-3.91,3.91-3.91,10.24,0,14.14,1.95,1.95,4.51,2.93,7.07,2.93s5.12-.98,7.07-2.93c3.91-3.91,3.91-10.24,0-14.14-1.95-1.95-4.51-2.93-7.07-2.93h0Z"/><path class="cls-4" d="m103.61,1371.18c-1.38,0-2.68-.54-3.65-1.51l-8.23-8.23-.29.09c-1.56.47-3.18.71-4.81.71-5.09,0-9.84-2.32-13.02-6.37-4.64-5.91-4.61-14.46.07-20.35,3.18-3.99,7.9-6.28,12.96-6.28,4.41,0,8.55,1.72,11.67,4.83,4.32,4.32,5.89,10.63,4.12,16.47l-.09.29,8.23,8.23c.98.98,1.51,2.27,1.51,3.65s-.54,2.68-1.51,3.65l-3.3,3.3c-.98.98-2.27,1.51-3.65,1.51Z"/><path class="cls-1" d="m86.64,1329.74h0c4.27,0,8.29,1.66,11.31,4.69,4.19,4.19,5.72,10.31,3.99,15.97l-.17.57.42.42,8.01,8.01c1.82,1.82,1.82,4.78,0,6.6l-3.3,3.3c-.88.88-2.05,1.37-3.3,1.37s-2.42-.49-3.3-1.37l-8.01-8.01-.42-.42-.57.17c-1.51.46-3.08.69-4.67.69-4.94,0-9.54-2.25-12.63-6.18-4.5-5.73-4.47-14.02.07-19.73,3.08-3.87,7.66-6.09,12.57-6.09m0-1c-4.96,0-9.92,2.16-13.35,6.47-4.83,6.07-4.87,14.86-.07,20.97,3.44,4.38,8.42,6.56,13.42,6.56,1.67,0,3.34-.25,4.96-.74l8.01,8.01c1.11,1.11,2.56,1.66,4.01,1.66s2.9-.55,4.01-1.66l3.3-3.3c2.21-2.21,2.21-5.8,0-8.01l-8.01-8.01c1.77-5.81.35-12.37-4.24-16.97-3.32-3.32-7.67-4.98-12.02-4.98h0Z"/><rect class="cls-4" x="-21.12" y="1144.5" width="14" height="225" transform="translate(-892.99 358.2) rotate(-45)"/><path class="cls-1" d="m-88.72,1173.21l158.39,158.39-9.19,9.19-158.39-158.39,9.19-9.19m0-1.41l-10.61,10.61,159.81,159.81,10.61-10.61-159.81-159.81h0Z"/><path class="cls-4" d="m73.91,1368.22c-2.37,0-4.61-.92-6.29-2.6l-18.46-18.46,24.75-24.75,18.46,18.46c3.47,3.47,3.47,9.11,0,12.57l-12.18,12.18c-1.68,1.68-3.91,2.6-6.29,2.6Z"/><path class="cls-1" d="m73.91,1323.11l18.11,18.11c3.27,3.27,3.27,8.59,0,11.86l-12.18,12.18c-1.58,1.58-3.69,2.46-5.93,2.46s-4.35-.87-5.93-2.46l-18.11-18.11,24.04-24.04m0-1.41l-25.46,25.46,18.82,18.82c1.83,1.83,4.24,2.75,6.64,2.75s4.81-.92,6.64-2.75l12.18-12.18c3.67-3.67,3.67-9.61,0-13.28l-18.82-18.82h0Z"/></g><g id="Coral_fish"><path class="cls-4" d="m-61.85,1877.56c-20.68,0-42.46-11.86-53.28-23.57-4.79-5.19-7.26-10.22-6.95-14.17.63-7.92,12.18-12.93,19.83-16.25.73-.32,1.42-.62,2.07-.9,50.09-22.24,91.19-84.74,105.9-134.99,9.14-31.21,8.41-57.12-2.05-72.97-5.84-8.85-14.22-13.82-20.95-17.81-7.1-4.21-12.22-7.25-11.54-12.58.68-5.28,6.42-7.11,21.77-11.99,9.58-3.04,22.69-7.22,40.46-14.13l.13-.05c2.89-1.12,7.72-3.01,11.59-3.01,1.9,0,3.32.47,4.23,1.39,1.91,1.93,1.81,5.95-.31,11.93l-.07.2c-3.76,10.7-6.87,34.71-10.81,65.11-5.92,45.69-13.29,102.54-27.07,150.8-16.29,57.06-37.34,87.23-64.34,92.23-2.73.51-5.63.76-8.61.76h0Z"/><path class="cls-1" d="m45.13,1555.65c1.76,0,3.06.42,3.87,1.24,1.76,1.79,1.62,5.62-.42,11.41l-.07.2c-3.77,10.75-6.89,34.78-10.83,65.21-5.92,45.67-13.28,102.51-27.05,150.72-7.48,26.18-16.17,47.03-25.84,61.99-11.12,17.21-23.95,27.27-38.11,29.89-2.7.5-5.57.76-8.52.76-20.54,0-42.17-11.77-52.92-23.41-4.7-5.08-7.12-9.98-6.82-13.79.6-7.62,11.99-12.56,19.53-15.83.73-.32,1.43-.62,2.07-.9,50.23-22.3,91.44-84.95,106.18-135.3,9.18-31.35,8.43-57.41-2.11-73.39-5.9-8.95-14.34-13.94-21.11-17.96-6.93-4.11-11.94-7.08-11.3-12.09.64-4.97,6.3-6.77,21.43-11.58,9.58-3.05,22.71-7.22,40.49-14.15l.13-.05c2.86-1.11,7.64-2.97,11.41-2.97m0-1c-4.02,0-9.05,1.98-11.9,3.09-46.49,18.1-61.39,17.47-62.55,26.53-1.42,11.08,20.75,12.82,32.57,30.73,30.89,46.81-28.84,174.01-103.64,207.23-7.37,3.27-21.48,8.56-22.19,17.57-1.13,14.32,31.59,38.28,60.73,38.28,2.95,0,5.87-.25,8.7-.77,82.7-15.34,87.84-266.43,102.59-308.46.66-1.88,3.47-9.4.26-12.65-1.1-1.12-2.74-1.54-4.58-1.54h0Z"/><path class="cls-4" d="m-69.12,1897.56c-8.38,0-15.57-1.89-21.36-5.62-13.14-8.45-19.96-26.56-20.74-39.81-.47-7.91,1.12-13.98,4.36-16.65,1.53-1.26,3.64-1.9,6.28-1.9,4.61,0,10,1.92,13.93,3.32.59.21,1.14.41,1.66.59,11.14,3.86,24.2,5.81,38.79,5.81h0c28.54,0,60.72-7.43,88.27-20.38,28.13-13.22,46.48-30.08,50.36-46.26,1.92-8,.19-15.18-1.21-20.94-1.45-6.01-2.5-10.36.91-12.92,1-.75,2.05-1.1,3.3-1.1,3.13,0,7.53,2.09,15.5,5.89,7.02,3.34,16.64,7.92,30.4,13.42l.1.04c3.13,1.25,9.65,3.85,9.54,7.27-.07,2.03-2.43,4.17-7.02,6.36l-.16.08c-8.26,3.96-23.86,15.65-43.61,30.43-49.12,36.78-123.35,92.37-169.31,92.37h0Z"/><path class="cls-1" d="m95.43,1742.2c3.02,0,7.64,2.2,15.29,5.84,7.03,3.35,16.66,7.93,30.43,13.43l.1.04c2.79,1.11,9.33,3.72,9.22,6.79-.04,1.26-1.25,3.31-6.74,5.93l-.16.08c-8.3,3.99-23.92,15.68-43.69,30.48-49.07,36.74-123.23,92.27-169.02,92.27-8.28,0-15.38-1.86-21.09-5.54-12.99-8.36-19.74-26.29-20.51-39.42-.46-7.75,1.06-13.67,4.17-16.24,1.46-1.2,3.41-1.79,5.96-1.79,4.52,0,9.86,1.9,13.76,3.29.59.21,1.14.41,1.66.59,11.2,3.88,24.31,5.84,38.96,5.84,28.61,0,60.87-7.45,88.48-20.43,28.27-13.29,46.72-30.27,50.64-46.59,1.95-8.12.2-15.36-1.21-21.17-1.55-6.41-2.28-10.15.72-12.4.92-.69,1.84-1,3-1m0-1c-1.38,0-2.52.39-3.6,1.2-7.19,5.4,3.98,18.01.11,34.15-8.18,34.11-79.34,66.26-138.15,66.26-13.9,0-27.11-1.79-38.64-5.79-4.05-1.4-10.37-3.93-15.75-3.93-2.51,0-4.81.55-6.59,2.02-9.81,8.09-3.83,44.23,16.44,57.27,6.12,3.94,13.43,5.7,21.63,5.7,64.56,0,184.38-109.05,213.14-122.86,1.45-.7,7.34-3.39,7.46-6.87.13-3.81-6.73-6.51-9.95-7.79-29.38-11.74-39.99-19.34-46.09-19.34h0Z"/><path class="cls-4" d="m-74.29,1891.71c-5.36,0-10.55-.96-15.44-2.86-19.23-7.46-35.69-29.57-41.41-46.59-2.44-7.28-2.7-13.05-.71-16.27,1.7-2.75,5.29-4.09,10.97-4.09,3.97,0,8.23.66,11.66,1.18.73.11,1.41.22,2.05.31,5.14.75,10.52,1.12,16.02,1.12h0c50.5,0,103.89-30.84,130.53-61.31,15.81-18.08,23.06-35.94,20.95-51.65-1.32-9.81-6.26-17.83-10.22-24.27-4.02-6.53-7.2-11.69-4.56-15.5,1.07-1.54,2.58-2.2,5.05-2.2,3.58,0,9.12,1.42,17.5,3.58,9.08,2.33,21.52,5.53,38.87,8.87l.12.02c3.99.77,12.29,2.36,13.67,6.54.8,2.44-.85,5.51-4.92,9.12l-.14.12c-7.32,6.54-19.34,23.82-34.56,45.7-41.05,59-103.08,148.16-155.43,148.16h-.01Z"/><path class="cls-1" d="m50.6,1670.09c3.52,0,9.03,1.42,17.38,3.56,9.09,2.33,21.54,5.53,38.9,8.87l.12.02c3.59.69,12,2.31,13.29,6.21.74,2.23-.87,5.12-4.78,8.59l-.14.12c-7.36,6.58-19.4,23.88-34.64,45.79-20.51,29.48-46.04,66.17-73.31,95.93-14.78,16.13-28.72,28.65-41.43,37.2-14.62,9.83-28.17,14.82-40.29,14.82-5.29,0-10.43-.95-15.26-2.83-19.09-7.4-35.43-29.37-41.11-46.29-2.4-7.13-2.67-12.76-.76-15.85,1.6-2.59,5.05-3.85,10.55-3.85,3.93,0,8.17.65,11.58,1.18.73.11,1.42.22,2.06.31,5.16.75,10.58,1.13,16.1,1.13,50.64,0,104.19-30.92,130.9-61.47,15.92-18.2,23.2-36.2,21.07-52.05-1.33-9.91-6.3-17.98-10.29-24.46-4.08-6.63-7.03-11.41-4.57-14.96.98-1.41,2.32-1.98,4.64-1.98m0-1c-2.62,0-4.29.73-5.46,2.41-5.53,7.98,12.03,20.27,14.7,40.12,6.49,48.26-78.95,112.39-150.98,112.39-5.41,0-10.74-.36-15.96-1.12-3.68-.53-8.93-1.5-13.79-1.5-4.87,0-9.33.97-11.4,4.33-7.24,11.74,14.71,52.87,42.37,63.6,5.08,1.97,10.31,2.89,15.63,2.89,72.28,0,163.6-170.09,190.33-193.99,1.28-1.15,6.56-5.66,5.2-9.78-1.49-4.51-10.12-6.12-14.17-6.9-33.66-6.47-48.96-12.45-56.47-12.45h0Z"/><path class="cls-4" d="m94.83,1929.04c-31.63,0-60.84-15.83-78.18-42.35,6.98-37.81,35.83-67.12,73.55-74.69,6.1-1.22,12.3-1.85,18.45-1.85.66,0,1.32,0,1.98.02l22.26,110.82c-6.21,2.76-12.79,4.85-19.55,6.2-6.11,1.23-12.33,1.85-18.51,1.85Z"/><path class="cls-1" d="m108.65,1809.65v1c.52,0,1.04,0,1.57.01l22.1,110.03c-6.08,2.67-12.49,4.69-19.08,6.01-6.08,1.22-12.27,1.84-18.41,1.84-15.46,0-30.84-3.94-44.47-11.39-13.38-7.32-24.84-17.88-33.18-30.56,3.35-17.95,11.85-34.4,24.59-47.6,13.13-13.6,29.91-22.77,48.52-26.5,6.07-1.22,12.24-1.84,18.35-1.84v-1m0,0c-6.12,0-12.32.61-18.55,1.86-38.86,7.81-67.27,38.54-73.98,75.29,17.1,26.28,46.67,42.75,78.7,42.75,6.13,0,12.36-.6,18.61-1.86,7.04-1.41,13.73-3.58,20.02-6.4l-22.42-111.6c-.79-.02-1.59-.03-2.39-.03h0Z"/><path class="cls-4" d="m-47.3,1860.38c3.86-.74,7.79-1.12,11.68-1.12,20.78,0,39.97,10.39,51.38,27.8-4.58,24.67-23.33,43.83-47.87,48.96l-15.19-75.64Z"/><path class="cls-1" d="m-35.61,1859.76c20.54,0,39.52,10.24,50.85,27.41-2.22,11.72-7.78,22.46-16.11,31.08-8.38,8.68-19.03,14.61-30.85,17.18l-14.99-74.65c3.67-.68,7.4-1.02,11.1-1.02h0m0-1c-4.05,0-8.15.4-12.27,1.23l15.39,76.63c25.63-5.15,44.37-25.42,48.79-49.66-11.28-17.34-30.78-28.19-51.91-28.19h0Z"/><path class="cls-4" d="m85.43,1850.23c2.17-.41,4.38-.61,6.57-.61,12.03,0,23.15,6,29.78,16.07-2.67,14.21-13.45,25.26-27.57,28.29l-8.79-43.75Z"/><path class="cls-1" d="m92,1849.12v1c11.8,0,22.7,5.85,29.25,15.67-2.67,13.75-13.03,24.46-26.65,27.59l-8.59-42.75c1.98-.34,3.99-.51,5.98-.51v-1m0,0c-2.36,0-4.76.23-7.16.72l8.99,44.74c14.96-3.01,25.9-14.84,28.49-28.99-6.59-10.12-17.97-16.46-30.31-16.46h0Z"/><path class="cls-4" d="m111.65,1810.19c30.45.96,58.52,16.73,75.23,42.3-5.54,30.04-25.35,55.43-53.06,68.07l-22.17-110.37Z"/><path class="cls-1" d="m112.27,1810.72c29.97,1.15,57.57,16.73,74.09,41.89-5.53,29.58-24.96,54.61-52.17,67.25l-21.92-109.13m-1.23-1.04l22.42,111.6c28.42-12.73,48.47-38.79,53.96-68.89-16.69-25.64-45.24-41.94-76.38-42.71h0Z"/><path class="cls-4" d="m146.49,1857.43c-2.88,0-5.39-2.05-5.96-4.89-.32-1.59,0-3.21.9-4.57.9-1.35,2.27-2.27,3.87-2.59.4-.08.8-.12,1.2-.12,2.88,0,5.39,2.05,5.96,4.89.66,3.29-1.48,6.5-4.77,7.16-.4.08-.8.12-1.2.12Z"/><path class="cls-1" d="m146.51,1845.76c2.65,0,4.94,1.89,5.47,4.49.29,1.46,0,2.95-.83,4.19-.83,1.24-2.09,2.09-3.55,2.38-.37.07-.74.11-1.11.11-2.65,0-4.95-1.89-5.47-4.49-.61-3.02,1.36-5.97,4.37-6.57.37-.07.74-.11,1.11-.11m0-1c-.43,0-.87.04-1.3.13-3.56.72-5.87,4.19-5.16,7.75.63,3.13,3.38,5.29,6.45,5.29.43,0,.87-.04,1.3-.13,3.56-.72,5.87-4.19,5.16-7.75-.63-3.13-3.38-5.29-6.45-5.29h0Z"/><path class="cls-4" d="m78.53,1975.5c-24.75,0-47.03-14.68-56.82-37.41,8.89-23.82,31.03-39.61,56.46-40.24.52-.01,1.04-.02,1.56-.02,3.99,0,7.97.38,11.84,1.14l1.85,74.73c-4.33,1.07-8.81,1.67-13.32,1.78-.52.01-1.04.02-1.56.02Z"/><path class="cls-1" d="m79.73,1898.33c3.82,0,7.63.35,11.34,1.05l1.83,73.93c-4.17,1-8.48,1.56-12.82,1.67-.52.01-1.03.02-1.55.02-24.49,0-46.54-14.48-56.29-36.93,4.23-11.24,11.62-20.92,21.37-28.02,10.09-7.35,22.04-11.39,34.57-11.7.52-.01,1.03-.02,1.55-.02m0-1c-.52,0-1.05,0-1.57.02-26.3.65-48.4,17.49-56.99,40.75,9.54,22.35,31.72,37.9,57.36,37.9.52,0,1.05,0,1.57-.02,4.76-.12,9.39-.77,13.82-1.89l-1.87-75.53c-3.99-.81-8.11-1.23-12.32-1.23h0Z"/><path class="cls-4" d="m-17.1,1913.73c.17,0,.35,0,.52,0,16.24,0,30.85,9.61,37.3,24.51-5.79,15.45-20.09,25.74-36.56,26.35l-1.26-50.86Z"/><path class="cls-1" d="m-16.57,1913.22v1c15.97,0,30.35,9.42,36.75,24.02-5.71,15-19.55,25.03-35.54,25.81l-1.23-49.84h.01v-1m0,0c-.34,0-.69,0-1.04.01l1.28,51.86c17.35-.43,31.92-11.53,37.59-26.88-6.29-14.74-20.92-25-37.83-25h0Z"/><path class="cls-4" d="m70.83,1922.3s.06,0,.09,0c9.37,0,17.8,5.53,21.55,14.11-3.35,8.83-11.5,14.73-20.92,15.16l-.72-29.27Z"/><path class="cls-1" d="m71.35,1922.8c8.93.16,16.94,5.46,20.59,13.62-3.26,8.38-10.96,14.02-19.89,14.62l-.7-28.23m-.42-1c-.2,0-.4,0-.61,0l.75,30.28c10.13-.25,18.63-6.73,21.94-15.69-3.67-8.61-12.22-14.59-22.09-14.59h0Z"/><path class="cls-4" d="m92.57,1899.17c19.63,4.15,36.03,17.59,43.99,36.07-7.03,18.85-22.75,33.09-42.15,38.2l-1.84-74.27Z"/><path class="cls-1" d="m93.08,1899.79c19.13,4.25,35.09,17.42,42.93,35.46-6.94,18.41-22.23,32.35-41.12,37.54l-1.81-73m-1.03-1.24l1.87,75.53c20.04-5.07,36.13-19.81,43.17-38.86-7.97-18.68-24.77-32.6-45.04-36.67h0Z"/><path class="cls-4" d="m110.46,1933.73c-2.12,0-3.81-1.66-3.87-3.77-.03-1.03.35-2.01,1.06-2.76.71-.75,1.67-1.17,2.71-1.2h0c2.18,0,3.91,1.69,3.96,3.77.03,1.03-.35,2.01-1.07,2.76-.71.75-1.67,1.18-2.71,1.2h-.1Z"/><path class="cls-1" d="m110.46,1926.49c1.81,0,3.32,1.47,3.37,3.29.02.9-.31,1.75-.93,2.41-.62.65-1.46,1.02-2.36,1.05h-.09c-1.81,0-3.32-1.47-3.37-3.29-.05-1.86,1.43-3.41,3.29-3.45h.09m0-1s-.07,0-.11,0c-2.41.06-4.32,2.06-4.26,4.48.06,2.38,2,4.26,4.37,4.26.04,0,.07,0,.11,0,2.41-.06,4.32-2.06,4.26-4.48-.06-2.38-2-4.26-4.37-4.26h0Z"/></g><g id="Nasketball"><path class="cls-4" d="m408.51,1892c-7.2,0-14.47-.51-21.6-1.52-33.15-4.69-63.22-19.71-86.95-43.44-23.58-23.58-38.57-53.44-43.35-86.34-3.37-23.16-1.37-47.15,5.78-69.37,7.5-23.3,20.14-43.94,37.56-61.37,28.99-28.99,67.53-44.95,108.53-44.95,7.41,0,14.89.54,22.22,1.61,32.9,4.78,62.76,19.77,86.34,43.35,23.73,23.73,38.75,53.8,43.44,86.95,3.26,23.07,1.2,46.95-5.97,69.06-7.51,23.17-20.12,43.72-37.47,61.07-28.99,28.99-67.53,44.96-108.53,44.96Z"/><path class="cls-1" d="m408.49,1585.51c7.38,0,14.83.54,22.14,1.6,32.8,4.76,62.56,19.7,86.06,43.2,23.65,23.65,38.63,53.62,43.3,86.67,3.25,23,1.19,46.8-5.95,68.83-7.49,23.1-20.05,43.58-37.35,60.87-28.9,28.9-67.31,44.81-108.18,44.81-7.18,0-14.43-.51-21.53-1.51-33.05-4.67-63.01-19.64-86.67-43.3-23.5-23.5-38.44-53.26-43.2-86.06-3.36-23.09-1.37-47,5.76-69.15,7.47-23.22,20.07-43.8,37.44-61.17,28.89-28.89,67.31-44.81,108.18-44.81h0m0-1c-39.4,0-78.81,15.03-108.88,45.1-35.75,35.75-50.25,84.71-43.49,131.17,4.6,31.7,19.1,62.23,43.49,86.62,24.54,24.54,55.32,39.07,87.24,43.58,7.19,1.02,14.43,1.52,21.67,1.52,39.41,0,78.81-15.03,108.88-45.1,35.6-35.6,50.12-84.27,43.58-130.55-4.51-31.92-19.04-62.69-43.58-87.24-24.39-24.39-54.92-38.88-86.62-43.49-7.39-1.08-14.84-1.61-22.29-1.61h0Z"/><path class="cls-4" d="m408.51,1892c-7.08,0-14.22-.49-21.23-1.47-3.19-22.96-1.11-46.7,6.02-68.69,7.51-23.17,20.12-43.72,37.47-61.07,28.99-28.99,67.53-44.96,108.53-44.96,7.08,0,14.22.49,21.23,1.47,3.19,22.96,1.11,46.7-6.02,68.69-7.51,23.17-20.12,43.72-37.47,61.07-28.99,28.99-67.53,44.96-108.53,44.96Z"/><path class="cls-1" d="m539.31,1716.32c6.93,0,13.91.47,20.78,1.41,3.1,22.77,1.01,46.29-6.05,68.09-7.49,23.1-20.05,43.58-37.35,60.87-28.9,28.9-67.31,44.81-108.18,44.81-6.93,0-13.92-.47-20.78-1.41-3.1-22.77-1.01-46.29,6.05-68.09,7.49-23.1,20.05-43.58,37.35-60.87,28.89-28.89,67.31-44.81,108.18-44.81h0m0-1c-39.41,0-78.81,15.03-108.88,45.1-35.6,35.6-50.12,84.27-43.58,130.55,7.19,1.02,14.43,1.52,21.67,1.52,39.41,0,78.81-15.03,108.88-45.1,35.6-35.6,50.12-84.27,43.58-130.55-7.19-1.02-14.43-1.52-21.67-1.52h0Z"/><path class="cls-4" d="m278.41,1761.89c-7.29,0-14.64-.52-21.85-1.55-3.3-23.05-1.28-46.9,5.84-69,7.5-23.3,20.14-43.94,37.56-61.37,28.99-28.99,67.53-44.95,108.53-44.95,7.29,0,14.64.52,21.85,1.55,3.3,23.05,1.28,46.9-5.84,69-7.5,23.3-20.14,43.94-37.56,61.37-28.99,28.99-67.53,44.95-108.53,44.95Z"/><path class="cls-1" d="m408.49,1584.51v1c7.14,0,14.33.5,21.4,1.5,3.21,22.86,1.18,46.49-5.87,68.41-7.47,23.22-20.07,43.8-37.44,61.17-28.89,28.89-67.31,44.81-108.17,44.81-7.14,0-14.34-.5-21.41-1.5-3.21-22.86-1.18-46.49,5.87-68.41,7.47-23.22,20.07-43.8,37.44-61.17,28.89-28.89,67.31-44.81,108.17-44.81v-1m0,0c-39.4,0-78.81,15.03-108.88,45.1-35.75,35.75-50.25,84.71-43.49,131.17,7.39,1.08,14.84,1.61,22.29,1.61,39.4,0,78.81-15.03,108.88-45.1,35.75-35.75,50.25-84.71,43.49-131.17-7.39-1.08-14.84-1.61-22.29-1.61h0Z"/><line class="cls-2" x1="517.39" y1="1629.61" x2="299.61" y2="1847.39"/><line class="cls-2" x1="299.61" y1="1629.61" x2="517.39" y2="1847.39"/></g></svg>