<?xml version="1.0" encoding="UTF-8"?><svg id="Layer_2" xmlns="http://www.w3.org/2000/svg" viewBox="0 0 530.5 147.67"><defs><style>.cls-1,.cls-2,.cls-3{fill:#fff;}.cls-2,.cls-3,.cls-4{stroke:#070808;stroke-miterlimit:10;}.cls-5{fill:#070808;}.cls-3{stroke-width:1.01px;}.cls-4{fill:none;}</style></defs><g id="introSVG"><rect class="cls-2" x="81.09" y="90.76" width="356.22" height="56.42"/><rect class="cls-2" x=".5" y="90.76" width="80.59" height="56.42"/><rect class="cls-2" x="133.48" y="34.34" width="356.22" height="56.42"/><rect class="cls-2" x="52.89" y="34.34" width="80.59" height="56.42"/><polyline class="cls-4" points="103 54.26 86 43.76 72.67 62.55 81.09 77.35 96.67 67.99 87.83 62.55"/><rect class="cls-2" x="173.78" y="90.76" width="356.22" height="56.42"/><rect class="cls-2" x="93.18" y="90.76" width="80.59" height="56.42"/><polyline class="cls-4" points="144 112.26 127 101.76 113.67 120.55 122.09 135.35 137.67 125.99 128.83 120.55"/><polyline class="cls-4" points="56 115.26 39 104.76 25.67 123.55 34.09 138.35 49.67 128.99 40.83 123.55"/><rect class="cls-2" x="381.92" y="43.62" width="81.03" height="47.14"/><rect class="cls-2" x="365.5" y="43.62" width="16.42" height="47.14"/><polygon class="cls-2" points="435.41 19.26 435.41 43.62 426.41 43.62 426.41 26.14 408.93 26.14 408.93 43.62 399.93 43.62 399.93 19.26 435.41 19.26"/><rect class="cls-2" x="393.57" y="19.26" width="6.36" height="24.36"/><rect class="cls-2" x="418.99" y="26.14" width="7.41" height="17.48"/><line class="cls-4" x1="373.5" y1="43.76" x2="373.5" y2="90.76"/><polygon class="cls-1" points="230.41 141.55 227.22 143.52 214.52 130.82 317.05 28.29 353.73 64.97 334.91 76.65 335.34 81.42 330.77 79.22 315.83 88.49 316.38 94.44 310.67 91.7 297.09 100.13 297.76 107.47 290.72 104.09 278.02 111.98 278.79 120.5 270.61 116.57 258.94 123.83 259.82 133.53 250.51 129.05 239.85 135.67 240.85 146.56 230.41 141.55"/><path class="cls-5" d="m317.05,29l35.88,35.88-18.02,11.19-.52.33.06.61.33,3.58-3.53-1.7-.49-.24-.47.29-14.44,8.96-.52.33.06.62.44,4.77-4.67-2.24-.49-.24-.47.29-13.09,8.13-.52.33.06.61.56,6.15-6-2.88-.49-.24-.47.29-12.21,7.58-.52.33.06.61.67,7.33-7.14-3.43-.49-.24-.47.29-11.18,6.95-.52.33.06.61.78,8.52-8.27-3.98-.49-.24-.47.29-10.16,6.31-.52.33.06.61.89,9.7-9.4-4.52-.49-.24-.47.29-2.62,1.62-12.07-12.07,101.82-101.82m0-1.41l-103.24,103.24,13.33,13.33,3.29-2.04,10.99,5.28-1.05-11.46,10.16-6.31,9.86,4.74-.94-10.27,11.18-6.95,8.73,4.19-.83-9.09,12.21-7.58,7.59,3.64-.72-7.91,13.09-8.13,6.26,3.01-.6-6.52,14.44-8.96,5.12,2.46-.49-5.34,19.09-11.85-37.48-37.48h0Z"/><path class="cls-3" d="m343.21.71l-27.58,27.58,37.48,37.48,27.58-27.58L343.21.71Zm9.9,53.74l-26.16-26.16,11.31-11.31,26.16,26.16-11.31,11.31Z"/><rect class="cls-2" x="350.61" y="9.79" width="5" height="37" transform="translate(83.42 257.97) rotate(-45)"/><rect class="cls-2" x="350.61" y="9.79" width="5" height="37" transform="translate(83.42 257.97) rotate(-45)"/></g></svg>