<?xml version="1.0" encoding="UTF-8"?><svg id="Layer_2" xmlns="http://www.w3.org/2000/svg" viewBox="0 0 320 320"><defs><style>.cls-1{fill:#fff;}.cls-2{fill:#070808;}</style></defs><g id="introSVG"><path class="cls-2" d="m160,319C72.33,319,1,247.67,1,160c0-14.92,2.07-29.7,6.14-43.91C17.88,78.63,42.01,46.48,75.08,25.56,100.45,9.49,129.82,1,160,1c87.67,0,159,71.33,159,159,0,17.99-2.98,35.64-8.86,52.46-10.46,29.94-29.47,55.84-54.97,74.91-27.64,20.69-60.55,31.62-95.17,31.62Zm0-244c-19.41,0-37.69,6.4-52.87,18.5-11.28,8.98-20.14,20.72-25.64,33.94-4.31,10.32-6.49,21.27-6.49,32.56,0,46.87,38.13,85,85,85,17.56,0,34.41-5.33,48.75-15.41,14.99-10.52,26.37-25.84,32.03-43.14,2.8-8.49,4.22-17.39,4.22-26.45,0-46.87-38.13-85-85-85Z"/><path class="cls-1" d="m160,1.5c42.34,0,82.14,16.49,112.08,46.42,29.94,29.94,46.42,69.74,46.42,112.08,0,17.93-2.97,35.53-8.83,52.3-10.43,29.84-29.38,55.67-54.8,74.68-27.56,20.62-60.36,31.52-94.87,31.52-42.34,0-82.14-16.49-112.08-46.42C17.99,242.14,1.5,202.34,1.5,160c0-14.88,2.06-29.6,6.12-43.77C18.33,78.89,42.38,46.84,75.35,25.98,100.64,9.97,129.91,1.5,160,1.5m0,244c17.66,0,34.62-5.36,49.03-15.5,15.08-10.58,26.52-26,32.22-43.4,2.82-8.54,4.25-17.49,4.25-26.6,0-47.14-38.36-85.5-85.5-85.5-19.52,0-37.91,6.43-53.18,18.61-11.34,9.04-20.26,20.84-25.79,34.14-4.33,10.38-6.53,21.4-6.53,32.76,0,47.14,38.36,85.5,85.5,85.5M160,.5c-31.32,0-60.54,9.03-85.19,24.64C42.17,45.79,17.55,77.97,6.66,115.95c-4.01,13.99-6.16,28.77-6.16,44.05,0,88.09,71.41,159.5,159.5,159.5,35.8,0,68.85-11.8,95.47-31.72,25.16-18.82,44.57-44.91,55.14-75.15,5.76-16.48,8.89-34.19,8.89-52.63C319.5,71.91,248.09.5,160,.5h0Zm0,244c-46.59,0-84.5-37.91-84.5-84.5,0-11.46,2.29-22.4,6.45-32.37,5.53-13.3,14.38-24.89,25.49-33.74,14.44-11.51,32.71-18.39,52.56-18.39,46.59,0,84.5,37.91,84.5,84.5,0,9.18-1.47,18.02-4.2,26.29-5.73,17.51-17.05,32.51-31.84,42.89-13.72,9.65-30.44,15.32-48.46,15.32h0Z"/><path class="cls-2" d="m160,219c-32.53,0-59-26.47-59-59,0-3.65.34-7.31,1.01-10.88,3.29-17.65,14.82-33.16,30.83-41.49,8.33-4.34,17.73-6.63,27.16-6.63,32.53,0,59,26.47,59,59,0,6.73-1.12,13.31-3.34,19.56-4.15,11.81-12.19,22.22-22.63,29.29-9.77,6.64-21.19,10.14-33.03,10.14Z"/><path class="cls-1" d="m160,101.5c32.26,0,58.5,26.24,58.5,58.5,0,6.67-1.11,13.19-3.31,19.4-4.12,11.71-12.09,22.03-22.44,29.04-9.69,6.58-21.01,10.06-32.75,10.06-32.26,0-58.5-26.24-58.5-58.5,0-3.62.34-7.25,1-10.79,3.27-17.5,14.69-32.87,30.57-41.14,8.26-4.3,17.57-6.58,26.93-6.58m0-1c-9.87,0-19.19,2.42-27.39,6.69-15.95,8.3-27.69,23.62-31.09,41.84-.67,3.56-1.02,7.22-1.02,10.97,0,32.81,26.69,59.5,59.5,59.5,12.33,0,23.8-3.77,33.31-10.23,10.46-7.09,18.56-17.42,22.82-29.54,2.19-6.18,3.37-12.82,3.37-19.73,0-32.81-26.69-59.5-59.5-59.5h0Z"/><path class="cls-2" d="m160,244c-46.32,0-84-37.68-84-84,0-11.15,2.16-21.98,6.41-32.18,5.43-13.06,14.19-24.66,25.34-33.54,15-11.96,33.07-18.28,52.25-18.28,46.32,0,84,37.68,84,84,0,8.95-1.4,17.74-4.17,26.13-5.59,17.1-16.84,32.24-31.65,42.64-14.17,9.96-30.82,15.23-48.17,15.23Zm0-144c-9.59,0-19.15,2.33-27.62,6.75-16.28,8.47-28,24.25-31.35,42.19-.68,3.63-1.03,7.35-1.03,11.06,0,33.08,26.92,60,60,60,12.04,0,23.66-3.57,33.59-10.32,10.62-7.2,18.79-17.77,23.01-29.79,2.25-6.36,3.4-13.06,3.4-19.9,0-33.08-26.92-60-60-60Z"/><path class="cls-1" d="m160,76.5c46.04,0,83.5,37.46,83.5,83.5,0,8.9-1.4,17.64-4.15,25.98-5.56,16.99-16.74,32.05-31.47,42.38-14.08,9.9-30.64,15.14-47.88,15.14-46.04,0-83.5-37.46-83.5-83.5,0-11.09,2.14-21.85,6.37-31.99,5.4-12.99,14.11-24.52,25.19-33.34,14.91-11.89,32.87-18.17,51.94-18.17m0,144c12.14,0,23.85-3.6,33.87-10.4,10.7-7.26,18.94-17.92,23.2-30.03,2.27-6.42,3.43-13.17,3.43-20.06,0-33.36-27.14-60.5-60.5-60.5-9.67,0-19.3,2.35-27.85,6.8-16.42,8.54-28.23,24.45-31.61,42.54-.69,3.66-1.04,7.41-1.04,11.15,0,33.36,27.14,60.5,60.5,60.5m0-145c-19.85,0-38.12,6.88-52.56,18.39-11.11,8.85-19.96,20.44-25.49,33.74-4.16,9.97-6.45,20.91-6.45,32.37,0,46.59,37.91,84.5,84.5,84.5,18.02,0,34.74-5.67,48.46-15.32,14.79-10.38,26.11-25.38,31.84-42.89,2.73-8.27,4.2-17.11,4.2-26.29,0-46.59-37.91-84.5-84.5-84.5h0Zm0,144c-32.81,0-59.5-26.69-59.5-59.5,0-3.75.35-7.41,1.02-10.97,3.4-18.22,15.14-33.54,31.09-41.84,8.2-4.27,17.52-6.69,27.39-6.69,32.81,0,59.5,26.69,59.5,59.5,0,6.91-1.18,13.55-3.37,19.73-4.26,12.12-12.36,22.45-22.82,29.54-9.51,6.46-20.98,10.23-33.31,10.23h0Z"/><path class="cls-2" d="m256.87,286.09c5.45-11.11,6.54-16.76,3.7-18.75-.63-.44-1.44-.66-2.41-.66-3.42,0-8.58,2.73-14.04,5.62-5.65,2.99-11.49,6.08-15.39,6.08-1.07,0-1.92-.23-2.59-.71-2.7-1.91-1.05-7.25.86-13.44,2.66-8.62,5.97-19.35-.14-27.24-2.98-3.86-9-7.93-15.73-8.35-.34-.02-.67-.03-.99-.04,13.24-9.7,23.52-23.18,29.33-38.42-.17,3.39.21,5.9,2.17,6.78.42.19.88.28,1.38.28,3.95,0,9.98-5.84,16.37-12.02,6-5.8,12.2-11.81,15.79-11.81.34,0,.64.05.91.16,3.39,1.35,1.4,10.86-.71,20.93-2.77,13.23-5.9,28.22,1.26,32.34,1.19.69,2.62,1.03,4.24,1.03,7.22,0,17.69-6.82,26.93-12.84.62-.4,1.24-.81,1.85-1.2-10.32,28.69-28.52,53.6-52.78,72.24Z"/><path class="cls-1" d="m275.16,173.92c.27,0,.51.04.73.13,3,1.19.87,11.38-1.01,20.36-2.8,13.39-5.98,28.57,1.5,32.88,1.27.73,2.78,1.1,4.49,1.1,7.37,0,17.9-6.86,27.2-12.92.2-.13.39-.26.59-.38-10.13,27.34-27.47,51.17-50.42,69.3,4.83-10.24,5.56-15.39,2.6-17.45-.72-.5-1.62-.75-2.7-.75-3.55,0-8.76,2.76-14.28,5.68-5.6,2.96-11.38,6.02-15.16,6.02-.97,0-1.72-.2-2.31-.62-2.4-1.7-.8-6.88,1.05-12.88,2.7-8.73,6.05-19.6-.22-27.69-2.99-3.87-8.97-7.96-15.7-8.52,12.08-9.16,21.61-21.48,27.41-35.38.17,2.15.82,3.89,2.47,4.64.48.22,1.02.33,1.59.33,4.15,0,10.25-5.91,16.72-12.16,5.65-5.47,12.05-11.67,15.44-11.67m0-1c-7.56,0-24.65,23.83-32.15,23.83-.42,0-.82-.08-1.18-.24-2.4-1.08-2.07-5.39-1.53-10.22-5.73,17.51-17.05,32.51-31.84,42.89.5-.05,1.01-.07,1.55-.07.35,0,.71.01,1.07.03,6.76.42,12.63,4.61,15.37,8.16,10.48,13.53-7.55,35.87-.61,40.78.78.56,1.76.8,2.88.8,7.79,0,22.61-11.7,29.43-11.7.84,0,1.56.18,2.13.57,3.22,2.25.06,10.41-4.81,20.03,25.16-18.82,44.57-44.91,55.14-75.15-9.96,6.42-21.87,14.76-29.74,14.76-1.49,0-2.83-.3-3.99-.97-12.41-7.14,7.82-49.94-.62-53.3-.34-.13-.7-.2-1.1-.2h0Z"/><path class="cls-2" d="m49.09,150.87c-.33,0-.64-.06-.91-.16-3.39-1.35-1.4-10.86.71-20.93,2.77-13.23,5.9-28.22-1.26-32.34-1.19-.69-2.62-1.03-4.24-1.03-7.21,0-17.67,6.82-26.9,12.83-3.2,2.09-6.25,4.07-8.99,5.67C18.21,78.57,41.56,47.32,73.44,26.61c-8.59,15.88-14.13,27.29-9.76,30.34.63.44,1.44.66,2.41.66,3.42,0,8.58-2.73,14.04-5.62,5.65-2.99,11.49-6.08,15.39-6.08,1.07,0,1.92.23,2.59.71,2.7,1.91,1.05,7.25-.86,13.44-2.66,8.62-5.97,19.34.13,27.24,2.13,2.76,5.47,5.23,9.06,6.74-10.85,8.83-19.42,20.23-24.82,33.03-.13-.01-.27-.02-.4-.02-3.95,0-9.98,5.84-16.37,12.02-6,5.8-12.2,11.8-15.78,11.8Z"/><path class="cls-1" d="m72.06,28.12c-8.4,15.62-13.22,26.06-8.66,29.24.72.5,1.62.75,2.7.75,3.55,0,8.76-2.76,14.28-5.68,5.6-2.96,11.38-6.02,15.16-6.02.97,0,1.72.2,2.31.62,2.4,1.7.8,6.88-1.05,12.88-2.7,8.73-6.05,19.59.22,27.69,2.03,2.63,5.13,5.01,8.51,6.57-10.53,8.73-18.86,19.88-24.19,32.38-.03,0-.05,0-.08,0-4.15,0-10.25,5.91-16.71,12.16-5.65,5.47-12.05,11.66-15.44,11.66-.27,0-.51-.04-.73-.13-3-1.19-.87-11.38,1.01-20.36,2.8-13.39,5.98-28.57-1.5-32.88-1.27-.73-2.78-1.1-4.49-1.1-7.36,0-17.89,6.86-27.17,12.91-2.78,1.81-5.43,3.54-7.87,5.01,10.66-35.06,33.15-65.29,63.73-85.7m2.75-2.98C42.17,45.79,17.55,77.97,6.66,115.95c10.78-6.04,26.9-19.05,36.72-19.05,1.49,0,2.83.3,3.99.97,12.41,7.14-7.82,49.94.62,53.3.34.13.71.2,1.1.2,7.57,0,24.64-23.82,32.15-23.82.25,0,.49.03.71.08,5.53-13.3,14.38-24.89,25.49-33.74-4.24-1.59-7.72-4.4-9.65-6.9-10.47-13.53,7.56-35.87.62-40.78-.79-.56-1.76-.8-2.88-.8-7.79,0-22.61,11.7-29.43,11.7-.84,0-1.56-.18-2.13-.57-4.44-3.1,3.27-17.47,10.84-31.4h0Z"/><circle class="cls-2" cx="160" cy="160" r="9.5"/><path class="cls-1" d="m160,151c4.96,0,9,4.04,9,9s-4.04,9-9,9-9-4.04-9-9,4.04-9,9-9m0-1c-5.52,0-10,4.48-10,10s4.48,10,10,10,10-4.48,10-10-4.48-10-10-10h0Z"/></g></svg>